<?xml version="1.0" encoding="utf-8"?>
<!-- Generator: Adobe Illustrator 18.1.1, SVG Export Plug-In . SVG Version: 6.00 Build 0)  -->
<svg version="1.1" id="Layer_1" xmlns="http://www.w3.org/2000/svg" xmlns:xlink="http://www.w3.org/1999/xlink" x="0px" y="0px"
	 width="390.6px" height="193px" viewBox="-764 864 390.6 193" enable-background="new -764 864 390.6 193" xml:space="preserve">
<path fill="#C4AF6C" d="M-716.4,1051.6c-0.2,0.5-1.2,3.2-1.3,3.6c0,0.1-0.1,0.3-0.1,0.4c0,0.3,0.2,0.4,0.6,0.4h0.9
	c0.1,0,0.2,0,0.2,0.1v0.4c0,0.1-0.1,0.2-0.1,0.2c-0.3,0-1-0.1-2.1-0.1c-1.3,0-1.7,0.1-2,0.1c-0.1,0-0.1,0-0.1-0.1v-0.4
	c0-0.1,0.1-0.1,0.1-0.1h0.6c0.5,0,0.8-0.3,1.1-0.8c0.1-0.3,1.5-3.7,2-5.2c0.1-0.4,1.6-4.3,1.8-4.8c0.1-0.2,0.1-0.4,0-0.6
	c-0.1-0.1-0.1-0.2-0.1-0.2c0-0.1,0-0.1,0.2-0.2c0.5-0.1,1.3-0.7,1.5-0.9c0.1-0.1,0.1-0.2,0.2-0.2s0.1,0.1,0.2,0.3
	c0.3,1.2,1.8,5.2,2.1,6.4c0.4,1.4,1.6,4.8,1.9,5.3c0.3,0.6,0.8,0.8,1.2,0.8h0.6c0.1,0,0.1,0.1,0.1,0.1v0.5c0,0.1-0.1,0.1-0.2,0.1
	c-0.3,0-0.7-0.1-2.2-0.1s-2.2,0.1-2.6,0.1c-0.1,0-0.1-0.1-0.1-0.2v-0.4c0-0.1,0.1-0.1,0.2-0.1h0.5c0.5,0,0.7-0.2,0.5-0.7
	c-0.1-0.7-0.9-3-1.1-3.7H-716.4L-716.4,1051.6z M-712.1,1050.9c-0.2-0.5-1.6-5.1-1.7-5.4c-0.1-0.1-0.1-0.3-0.1-0.3
	c-0.1,0-0.1,0.1-0.2,0.3c-0.1,0.2-1.8,4.9-2,5.4H-712.1z"/>
<path fill="#C4AF6C" d="M-698.9,1056c-0.2-0.2-0.3-0.2-0.4-0.2c-0.1,0-0.2,0.1-0.3,0.3c-0.1,0.2-0.2,0.2-0.3,0.2
	c-0.1,0-0.2-0.1-0.2-0.3c0.1-0.5,0.3-2.8,0.3-3.3c0-0.1,0.1-0.1,0.1-0.1h0.3c0.1,0,0.1,0,0.1,0.1c0,0.6,0.1,1.2,0.7,2.1
	c0.5,0.9,1.6,1.3,2.6,1.3c1.1,0,2.5-0.7,2.5-2.3c0-1.9-1.4-2.6-2.8-3.1c-0.6-0.2-1.9-0.7-2.7-1.5c-0.6-0.6-0.9-1.5-0.9-2.7
	c0-0.9,0.6-1.8,1.1-2.3c0.7-0.6,1.6-0.9,2.6-0.9s1.8,0.3,2.2,0.5c0.2,0.1,0.3,0.1,0.3,0l0.2-0.2c0.1-0.1,0.1-0.1,0.2-0.1
	c0.1,0,0.1,0.1,0.1,0.3c0,0.6,0.2,2.5,0.3,2.9c0,0.1,0,0.1-0.1,0.1l-0.2,0.1c-0.1,0-0.1,0-0.1-0.1c-0.1-0.5-0.4-1.2-1.1-2
	c-0.5-0.5-1.1-0.8-2-0.8c-1.6,0-2.2,1.2-2.2,2.1c0,0.5,0.1,1.1,0.6,1.6s1.6,0.9,2.1,1.1c1.3,0.4,2.3,0.7,2.9,1.5
	c0.5,0.6,0.8,1.3,0.8,2.5c0,2.2-1.3,4-3.7,4C-697.3,1057-698.2,1056.6-698.9,1056z"/>
<path fill="#C4AF6C" d="M-683.5,1056c-0.2-0.2-0.3-0.2-0.4-0.2c-0.1,0-0.2,0.1-0.3,0.3c-0.1,0.2-0.2,0.2-0.3,0.2s-0.2-0.1-0.2-0.3
	c0.1-0.5,0.3-2.8,0.3-3.3c0-0.1,0.1-0.1,0.1-0.1h0.3c0.1,0,0.1,0,0.1,0.1c0,0.6,0.1,1.2,0.7,2.1c0.5,0.9,1.6,1.3,2.6,1.3
	c1.1,0,2.5-0.7,2.5-2.3c0-1.9-1.4-2.6-2.8-3.1c-0.6-0.2-1.9-0.7-2.7-1.5c-0.6-0.6-0.9-1.5-0.9-2.7c0-0.9,0.6-1.8,1.1-2.3
	c0.7-0.6,1.6-0.9,2.6-0.9s1.8,0.3,2.2,0.5c0.2,0.1,0.3,0.1,0.3,0l0.2-0.2c0.1-0.1,0.1-0.1,0.2-0.1s0.1,0.1,0.1,0.3
	c0,0.6,0.2,2.5,0.3,2.9c0,0.1,0,0.1-0.1,0.1l-0.2,0.1c-0.1,0-0.1,0-0.1-0.1c-0.1-0.5-0.4-1.2-1.1-2c-0.5-0.5-1.1-0.8-2-0.8
	c-1.6,0-2.2,1.2-2.2,2.1c0,0.5,0.1,1.1,0.6,1.6s1.6,0.9,2.1,1.1c1.3,0.4,2.3,0.7,2.9,1.5c0.5,0.6,0.8,1.3,0.8,2.5c0,2.2-1.3,4-3.7,4
	C-681.8,1057-682.7,1056.6-683.5,1056z"/>
<path fill="#C4AF6C" d="M-666.1,1049.7c0.1,0,2.1-0.1,2.3-0.1c0.5-0.1,0.7-0.2,0.8-0.8c0.1-0.2,0.1-0.5,0.1-0.9
	c0-0.1,0.1-0.1,0.1-0.1h0.5c0.1,0,0.1,0.1,0.1,0.1c-0.1,0.3-0.1,1.8-0.1,2.1c0,0.6,0.1,1.5,0.1,1.9c0,0.1,0,0.1-0.1,0.1l-0.4,0.1
	c-0.1,0-0.1,0-0.1-0.2c0-0.2-0.1-0.7-0.2-0.9c-0.1-0.4-0.3-0.7-0.8-0.7c-0.9-0.1-2.1-0.1-2.4-0.1v1.1c0,1,0,2.8,0,3.1
	c0,0.9,0.5,1.3,1,1.4c0.4,0.1,0.9,0.1,1.4,0.1c0.3,0,1.2,0,1.6-0.1c0.3,0,1.1-0.2,1.6-0.6c0.2-0.2,1.2-1.5,1.5-1.9
	c0.1-0.1,0.1-0.2,0.2-0.1l0.3,0.2c0.1,0.1,0.1,0.1,0,0.3l-1,2.7c-0.1,0.2-0.2,0.3-0.4,0.3c-0.1,0-0.5,0-1.6,0c-1.1,0-2.9,0-5.7,0
	c-0.7,0-1.2,0-1.6,0c-0.4,0-0.6,0-0.8,0c-0.1,0-0.2,0-0.2-0.1v-0.5c0-0.1,0.1-0.1,0.2-0.1h0.7c0.8,0,0.9-0.1,0.9-0.8v-4.3v-1.8
	c0-1.5,0-3.8-0.1-4c-0.1-0.6-0.3-0.7-0.9-0.7h-0.7c-0.1,0-0.1,0-0.1-0.1v-0.5c0-0.1,0-0.1,0.1-0.1c0.4,0,1,0.1,2.2,0.1h0.8
	c1.8,0,3.6,0,5.4,0c0.3,0,0.6,0,0.7,0c0.1,0,0.1,0,0.1,0.1c0.1,0.3,0.9,2.8,0.9,2.9c0,0.1,0,0.1-0.1,0.2l-0.3,0.1
	c-0.1,0-0.1,0-0.1-0.1s-1.4-1.8-1.8-2.1c-0.4-0.3-0.9-0.5-1.4-0.5l-3.2-0.1v5.4H-666.1z"/>
<path fill="#C4AF6C" d="M-647,1044.4h-0.5c-0.6,0-2.2,0-2.9,0.2c-0.8,0.3-1.4,1.5-1.6,2.1c0,0.1-0.1,0.1-0.2,0.1l-0.3-0.1
	c-0.1,0-0.1,0-0.1-0.1c0.2-0.7,0.8-3,0.9-3.2c0-0.2,0.1-0.3,0.2-0.3s0.1,0,0.2,0.1l0.2,0.2c0.3,0.2,0.5,0.3,1,0.3
	c1,0,1.7,0.1,3.4,0.1h0.9c2,0,2.8-0.1,3.7-0.1c0.4,0,0.6-0.1,0.9-0.3l0.3-0.2c0.1-0.1,0.1-0.1,0.2-0.1c0.1,0,0.1,0.1,0.2,0.3
	c0,0.2,0.4,2.5,0.5,3.3c0,0.1,0,0.1-0.1,0.1l-0.3,0.1c-0.1,0-0.1,0-0.1-0.1c-0.1-0.3-0.7-1.8-1.3-2c-0.5-0.3-2.3-0.3-3.2-0.3h-0.5
	v5.2c0,0.3,0,5.4,0,5.7c0,0.5,0.2,0.7,0.6,0.7h1.1c0.2,0,0.2,0.1,0.2,0.2v0.4c0,0.1,0,0.1-0.2,0.1c-0.2,0-0.8-0.1-2.6-0.1
	s-2.5,0.1-2.8,0.1c-0.1,0-0.2-0.1-0.2-0.2v-0.3c0-0.1,0-0.2,0.1-0.2h1.2c0.4,0,0.6-0.2,0.6-0.4c0.1-0.5,0.1-6.1,0.1-6.5v-4.8H-647z"
	/>
<path fill="#C4AF6C" d="M-615.2,1053.8c0.3-0.3,2.1-4.6,2.2-4.9c0.1-0.3,2.1-4.5,2.2-4.9c0-0.2,0.2-0.2,0.4-0.2c2.4,0,3-0.1,3.2-0.1
	c0.1,0,0.1,0.1,0.1,0.1v0.4c0,0.1,0,0.2-0.1,0.2h-0.8c-0.5,0-0.6,0.3-0.6,0.7c0,0.5-0.1,3.1-0.1,4.4v1.3c0,0.9,0.1,3.9,0.1,4.2
	c0,0.7,0.2,1,0.6,1h1.1c0.1,0,0.1,0.1,0.1,0.1v0.4c0,0.1,0,0.2-0.2,0.2s-0.5-0.1-2.6-0.1c-1.7,0-2.4,0.1-2.6,0.1
	c-0.1,0-0.1-0.1-0.1-0.2v-0.4c0-0.1,0-0.1,0.1-0.1h1.2c0.3,0,0.5-0.1,0.5-0.7c0-0.2,0-3.4,0-4.7v-1.2c0-1.2,0-4.5-0.1-4.6l0,0
	c-0.2,0.2-2.8,6-2.9,6.2c-0.1,0.2-2.1,4.9-2.2,5s-0.2,0.4-0.4,0.4c-0.1,0-0.2-0.1-0.3-0.3c-0.1-0.1-2.4-5.9-2.5-6.1
	c-0.3-0.8-2-4.9-2.3-5.1c-0.1,0.3-0.1,4.9-0.1,5.1c0,0.2,0,4.1,0,4.7c0.1,1,0.3,1.3,0.8,1.3h0.9c0.1,0,0.1,0.1,0.1,0.1v0.5
	c0,0.1,0,0.1-0.2,0.1s-0.7-0.1-2.2-0.1c-1.6,0-2.2,0.1-2.4,0.1c-0.1,0-0.2,0-0.2-0.2v-0.4c0-0.1,0-0.1,0.1-0.1h1
	c0.7,0,0.9-0.5,1-1.1c0.2-1.3,0.3-6,0.3-6.3c0-0.3,0-3,0-3.5c0-0.4,0-0.7-0.7-0.7h-1.1c-0.1,0-0.1-0.1-0.1-0.1v-0.5
	c0-0.1,0-0.1,0.1-0.1c0.2,0,0.7,0.1,2.2,0.1c0.9,0,1.3-0.1,1.6-0.1c0.3,0,0.4,0.1,0.5,0.3L-615.2,1053.8z"/>
<path fill="#C4AF6C" d="M-596.7,1051.6c-0.2,0.5-1.2,3.2-1.3,3.6c0,0.1-0.1,0.3-0.1,0.4c0,0.3,0.2,0.4,0.6,0.4h0.9
	c0.1,0,0.2,0,0.2,0.1v0.4c0,0.1-0.1,0.2-0.1,0.2c-0.3,0-1-0.1-2.1-0.1c-1.3,0-1.7,0.1-2,0.1c-0.1,0-0.1,0-0.1-0.1v-0.4
	c0-0.1,0.1-0.1,0.1-0.1h0.6c0.5,0,0.8-0.3,1.1-0.8c0.1-0.3,1.5-3.7,2-5.2c0.1-0.4,1.6-4.3,1.8-4.8c0.1-0.2,0.1-0.4,0-0.6
	c-0.1-0.1-0.1-0.2-0.1-0.2c0-0.1,0-0.1,0.2-0.2c0.5-0.1,1.3-0.7,1.5-0.9c0.1-0.1,0.1-0.2,0.2-0.2c0.1,0,0.1,0.1,0.2,0.3
	c0.3,1.2,1.8,5.2,2.1,6.4c0.4,1.4,1.6,4.8,1.9,5.3c0.3,0.6,0.8,0.8,1.2,0.8h0.6c0.1,0,0.1,0.1,0.1,0.1v0.5c0,0.1-0.1,0.1-0.2,0.1
	c-0.3,0-0.7-0.1-2.2-0.1s-2.2,0.1-2.6,0.1c-0.1,0-0.1-0.1-0.1-0.2v-0.4c0-0.1,0.1-0.1,0.2-0.1h0.5c0.5,0,0.7-0.2,0.5-0.7
	c-0.1-0.7-0.9-3-1.1-3.7H-596.7L-596.7,1051.6z M-592.4,1050.9c-0.2-0.5-1.6-5.1-1.7-5.4c-0.1-0.1-0.1-0.3-0.1-0.3
	c-0.1,0-0.1,0.1-0.2,0.3c-0.1,0.2-1.8,4.9-2,5.4H-592.4z"/>
<path fill="#C4AF6C" d="M-579.2,1046.1c0-1.1-0.5-1.7-1.2-1.7h-0.7c-0.1,0-0.1-0.1-0.1-0.1v-0.5c0-0.1,0-0.1,0.1-0.1
	c0.1,0,0.2,0,0.5,0c0.3,0,0.7,0,1.3,0s1,0,1.2,0c0.2,0,0.4,0.1,0.5,0.2c0.1,0.1,3.6,4.7,3.8,5c0.2,0.3,3.3,4,3.7,4.6h0.1v-2.2
	c0-1.6,0-2.5-0.1-3.4c0-0.7-0.1-2.5-0.2-2.8c-0.1-0.5-0.5-0.7-1-0.7h-0.6c-0.1,0-0.1,0-0.1-0.1v-0.5c0-0.1,0-0.1,0.1-0.1
	c0.3,0,0.8,0.1,2,0.1c1.1,0,1.5-0.1,1.8-0.1c0.1,0,0.1,0.1,0.1,0.1v0.5c0,0.1,0,0.1-0.1,0.1h-0.5c-0.5,0-0.7,0.3-0.7,1
	c-0.1,1.2-0.1,3-0.1,4.2v6.8c0,0.3,0,0.4-0.1,0.4c-0.2,0-0.4-0.2-0.4-0.3c0,0-1.1-1.4-2.2-2.8c-1.3-1.6-2.6-3.3-2.7-3.4
	c-0.2-0.2-3.6-4.4-3.7-4.5h-0.1v4.1c0,1.7,0.1,4.7,0.2,5c0.1,0.7,0.2,1.1,0.7,1.1h0.5c0.1,0,0.1,0.1,0.1,0.2v0.4
	c0,0.1,0,0.1-0.1,0.1c-0.2,0-1.3-0.1-1.8-0.1c-0.4,0-1.6,0.1-1.8,0.1c-0.1,0-0.1,0-0.1-0.1v-0.5c0-0.1,0-0.1,0.1-0.1h0.6
	c0.5,0,0.7-0.2,0.8-1.1c0-0.3,0.1-2.4,0.1-5.7L-579.2,1046.1L-579.2,1046.1z"/>
<path fill="#C4AF6C" d="M-557.8,1051.6c-0.2,0.5-1.2,3.2-1.3,3.6c0,0.1-0.1,0.3-0.1,0.4c0,0.3,0.2,0.4,0.6,0.4h0.9
	c0.1,0,0.2,0,0.2,0.1v0.4c0,0.1-0.1,0.2-0.1,0.2c-0.3,0-1-0.1-2.1-0.1c-1.3,0-1.7,0.1-2,0.1c-0.1,0-0.1,0-0.1-0.1v-0.4
	c0-0.1,0.1-0.1,0.1-0.1h0.6c0.5,0,0.8-0.3,1.1-0.8c0.1-0.3,1.5-3.7,2-5.2c0.1-0.4,1.6-4.3,1.8-4.8c0.1-0.2,0.1-0.4,0-0.6
	c-0.1-0.1-0.1-0.2-0.1-0.2c0-0.1,0-0.1,0.2-0.2c0.5-0.1,1.3-0.7,1.5-0.9c0.1-0.1,0.1-0.2,0.2-0.2s0.1,0.1,0.2,0.3
	c0.3,1.2,1.8,5.2,2.1,6.4c0.4,1.4,1.6,4.8,1.9,5.3c0.3,0.6,0.8,0.8,1.2,0.8h0.6c0.1,0,0.1,0.1,0.1,0.1v0.5c0,0.1-0.1,0.1-0.2,0.1
	c-0.3,0-0.7-0.1-2.2-0.1s-2.2,0.1-2.6,0.1c-0.1,0-0.1-0.1-0.1-0.2v-0.4c0-0.1,0.1-0.1,0.2-0.1h0.5c0.5,0,0.7-0.2,0.5-0.7
	c-0.1-0.7-0.9-3-1.1-3.7H-557.8L-557.8,1051.6z M-553.6,1050.9c-0.2-0.5-1.6-5.1-1.7-5.4c-0.1-0.1-0.1-0.3-0.1-0.3
	c-0.1,0-0.1,0.1-0.2,0.3c-0.1,0.2-1.8,4.9-2,5.4H-553.6z"/>
<path fill="#C4AF6C" d="M-532.4,1052.6c0-0.7-0.2-0.8-0.7-0.8h-0.8c-0.1,0-0.1,0-0.1-0.1v-0.5c0-0.1,0-0.1,0.1-0.1
	c0.3,0,1.1,0.1,2.3,0.1c1.3,0,1.9-0.1,2.2-0.1c0.1,0,0.1,0.1,0.1,0.1v0.4c0,0.1,0,0.1-0.1,0.1h-0.7c-0.3,0-0.6,0.1-0.6,0.7v2.4
	c0,0.3,0.1,0.4,0.1,0.6c0,0.1-0.1,0.2-0.3,0.3c-1.5,0.7-2.9,1.2-5,1.2c-1.6,0-3.9-0.6-5.1-2.1c-1.1-1.3-1.7-2.8-1.7-5
	c0-1.7,0.7-3.4,2.1-4.6c1.3-1.1,2.9-1.7,5.1-1.7c1.6,0,3,0.6,3.6,1.1c0.2,0.2,0.3,0.1,0.4,0l0.3-0.3c0.1-0.1,0.1-0.2,0.3-0.2
	c0.1,0,0.2,0.1,0.2,0.2l0.1,3.5c0,0.1,0,0.2-0.1,0.2h-0.3c-0.1,0-0.1-0.1-0.1-0.1c-0.1-0.5-0.5-1.4-1.1-2.2
	c-0.5-0.7-1.7-1.5-3.3-1.5c-1.3,0-2.4,0.3-3.5,1.5c-1,1-1.6,2.6-1.6,4.2c0,2.2,0.6,4,1.7,5.1c0.9,0.9,2,1.3,3.2,1.3
	c1.5,0,2.4-0.3,3-0.6c0.4-0.3,0.5-0.7,0.5-1.6v-1.5H-532.4z"/>
<path fill="#C4AF6C" d="M-518.9,1049.7c0.1,0,2.1-0.1,2.3-0.1c0.5-0.1,0.7-0.2,0.8-0.8c0.1-0.2,0.1-0.5,0.1-0.9
	c0-0.1,0.1-0.1,0.1-0.1h0.5c0.1,0,0.1,0.1,0.1,0.1c-0.1,0.3-0.1,1.8-0.1,2.1c0,0.6,0.1,1.5,0.1,1.9c0,0.1,0,0.1-0.1,0.1l-0.4,0.1
	c-0.1,0-0.1,0-0.1-0.2c0-0.2-0.1-0.7-0.2-0.9c-0.1-0.4-0.3-0.7-0.8-0.7c-0.9-0.1-2.1-0.1-2.4-0.1v1.1c0,1,0,2.8,0,3.1
	c0,0.9,0.5,1.3,1,1.4c0.4,0.1,0.9,0.1,1.4,0.1c0.3,0,1.2,0,1.6-0.1c0.3,0,1.1-0.2,1.6-0.6c0.2-0.2,1.2-1.5,1.5-1.9
	c0.1-0.1,0.1-0.2,0.2-0.1l0.3,0.2c0.1,0.1,0.1,0.1,0,0.3l-1,2.7c-0.1,0.2-0.2,0.3-0.4,0.3c-0.1,0-0.5,0-1.6,0s-2.9,0-5.7,0
	c-0.7,0-1.2,0-1.6,0s-0.6,0-0.8,0c-0.1,0-0.2,0-0.2-0.1v-0.5c0-0.1,0.1-0.1,0.2-0.1h0.7c0.8,0,0.9-0.1,0.9-0.8v-4.3v-1.8
	c0-1.5,0-3.8-0.1-4c-0.1-0.6-0.3-0.7-0.9-0.7h-0.7c-0.1,0-0.1,0-0.1-0.1v-0.5c0-0.1,0-0.1,0.1-0.1c0.4,0,1,0.1,2.2,0.1h0.8
	c1.8,0,3.6,0,5.4,0c0.3,0,0.6,0,0.7,0c0.1,0,0.1,0,0.1,0.1c0.1,0.3,0.9,2.8,0.9,2.9c0,0.1,0,0.1-0.1,0.2l-0.3,0.1
	c-0.1,0-0.1,0-0.1-0.1s-1.4-1.8-1.8-2.1c-0.4-0.3-0.9-0.5-1.4-0.5l-3.2-0.1v5.4H-518.9z"/>
<path fill="#C4AF6C" d="M-496.7,1053.8c0.3-0.3,2.1-4.6,2.2-4.9c0.1-0.3,2.1-4.5,2.2-4.9c0-0.2,0.2-0.2,0.4-0.2c2.4,0,3-0.1,3.2-0.1
	c0.1,0,0.1,0.1,0.1,0.1v0.4c0,0.1,0,0.2-0.1,0.2h-0.8c-0.5,0-0.6,0.3-0.6,0.7c0,0.5-0.1,3.1-0.1,4.4v1.3c0,0.9,0.1,3.9,0.1,4.2
	c0,0.7,0.2,1,0.6,1h1.1c0.1,0,0.1,0.1,0.1,0.1v0.4c0,0.1,0,0.2-0.2,0.2s-0.5-0.1-2.6-0.1c-1.7,0-2.4,0.1-2.6,0.1
	c-0.1,0-0.1-0.1-0.1-0.2v-0.4c0-0.1,0-0.1,0.1-0.1h1.2c0.3,0,0.5-0.1,0.5-0.7c0-0.2,0-3.4,0-4.7v-1.2c0-1.2,0-4.5-0.1-4.6l0,0
	c-0.2,0.2-2.8,6-2.9,6.2s-2.1,4.9-2.2,5c-0.1,0.2-0.2,0.4-0.4,0.4c-0.1,0-0.2-0.1-0.3-0.3c-0.1-0.1-2.4-5.9-2.5-6.1
	c-0.3-0.8-2-4.9-2.3-5.1c-0.1,0.3-0.1,4.9-0.1,5.1c0,0.2,0,4.1,0,4.7c0.1,1,0.3,1.3,0.8,1.3h0.9c0.1,0,0.1,0.1,0.1,0.1v0.5
	c0,0.1,0,0.1-0.2,0.1s-0.7-0.1-2.2-0.1c-1.6,0-2.2,0.1-2.4,0.1c-0.1,0-0.2,0-0.2-0.2v-0.4c0-0.1,0-0.1,0.1-0.1h1
	c0.7,0,0.9-0.5,1-1.1c0.2-1.3,0.3-6,0.3-6.3c0-0.3,0-3,0-3.5c0-0.4,0-0.7-0.7-0.7h-0.7c-0.1,0-0.1-0.1-0.1-0.1v-0.5
	c0-0.1,0-0.1,0.1-0.1c0.2,0,0.7,0.1,2.2,0.1c0.9,0,1.3-0.1,1.6-0.1c0.3,0,0.4,0.1,0.5,0.3L-496.7,1053.8z"/>
<path fill="#C4AF6C" d="M-477.9,1049.7c0.1,0,2.1-0.1,2.3-0.1c0.5-0.1,0.7-0.2,0.8-0.8c0.1-0.2,0.1-0.5,0.1-0.9
	c0-0.1,0.1-0.1,0.1-0.1h0.5c0.1,0,0.1,0.1,0.1,0.1c-0.1,0.3-0.1,1.8-0.1,2.1c0,0.6,0.1,1.5,0.1,1.9c0,0.1,0,0.1-0.1,0.1l-0.4,0.1
	c-0.1,0-0.1,0-0.1-0.2c0-0.2-0.1-0.7-0.2-0.9c-0.1-0.4-0.3-0.7-0.8-0.7c-0.9-0.1-2.1-0.1-2.4-0.1v1.1c0,1,0,2.8,0,3.1
	c0,0.9,0.5,1.3,1,1.4c0.4,0.1,0.9,0.1,1.4,0.1c0.3,0,1.2,0,1.6-0.1c0.3,0,1.1-0.2,1.6-0.6c0.2-0.2,1.2-1.5,1.5-1.9
	c0.1-0.1,0.1-0.2,0.2-0.1l0.3,0.2c0.1,0.1,0.1,0.1,0,0.3l-1,2.7c-0.1,0.2-0.2,0.3-0.4,0.3c-0.1,0-0.5,0-1.6,0s-2.9,0-5.7,0
	c-0.7,0-1.2,0-1.6,0s-0.6,0-0.8,0c-0.1,0-0.2,0-0.2-0.1v-0.5c0-0.1,0.1-0.1,0.2-0.1h0.7c0.8,0,0.9-0.1,0.9-0.8v-4.3v-1.8
	c0-1.5,0-3.8-0.1-4c-0.1-0.6-0.3-0.7-0.9-0.7h-0.7c-0.1,0-0.1,0-0.1-0.1v-0.5c0-0.1,0-0.1,0.1-0.1c0.4,0,1,0.1,2.2,0.1h0.8
	c1.8,0,3.6,0,5.4,0c0.3,0,0.6,0,0.7,0s0.1,0,0.1,0.1c0.1,0.3,0.9,2.8,0.9,2.9c0,0.1,0,0.1-0.1,0.2l-0.3,0.1c-0.1,0-0.1,0-0.1-0.1
	s-1.4-1.8-1.8-2.1c-0.4-0.3-0.9-0.5-1.4-0.5l-3.2-0.1v5.4H-477.9z"/>
<path fill="#C4AF6C" d="M-462.2,1046.1c0-1.1-0.5-1.7-1.2-1.7h-0.7c-0.1,0-0.1-0.1-0.1-0.1v-0.5c0-0.1,0-0.1,0.1-0.1s0.2,0,0.5,0
	s0.7,0,1.3,0c0.6,0,1,0,1.2,0s0.4,0.1,0.5,0.2s3.6,4.7,3.8,5c0.2,0.3,3.3,4,3.7,4.6h0.1v-2.2c0-1.6,0-2.5-0.1-3.4
	c0-0.7-0.1-2.5-0.2-2.8c-0.1-0.5-0.5-0.7-1-0.7h-0.6c-0.1,0-0.1,0-0.1-0.1v-0.5c0-0.1,0-0.1,0.1-0.1c0.3,0,0.8,0.1,2,0.1
	c1.1,0,1.5-0.1,1.8-0.1c0.1,0,0.1,0.1,0.1,0.1v0.5c0,0.1,0,0.1-0.1,0.1h-0.5c-0.5,0-0.7,0.3-0.7,1c-0.1,1.2-0.1,3-0.1,4.2v6.8
	c0,0.3,0,0.4-0.1,0.4c-0.2,0-0.4-0.2-0.4-0.3c0,0-1.1-1.4-2.2-2.8c-1.3-1.6-2.6-3.3-2.7-3.4c-0.2-0.2-3.6-4.4-3.7-4.5h-0.1v4.1
	c0,1.7,0.1,4.7,0.2,5c0.1,0.7,0.2,1.1,0.7,1.1h0.5c0.1,0,0.1,0.1,0.1,0.2v0.4c0,0.1,0,0.1-0.1,0.1c-0.2,0-1.3-0.1-1.8-0.1
	c-0.4,0-1.6,0.1-1.8,0.1c-0.1,0-0.1,0-0.1-0.1v-0.5c0-0.1,0-0.1,0.1-0.1h0.6c0.5,0,0.7-0.2,0.8-1.1c0-0.3,0.1-2.4,0.1-5.7v-3.1
	H-462.2z"/>
<path fill="#C4AF6C" d="M-439.2,1044.4h-0.5c-0.6,0-2.2,0-2.9,0.2c-0.8,0.3-1.4,1.5-1.6,2.1c0,0.1-0.1,0.1-0.2,0.1l-0.3-0.1
	c-0.1,0-0.1,0-0.1-0.1c0.2-0.7,0.8-3,0.9-3.2c0-0.2,0.1-0.3,0.2-0.3s0.1,0,0.2,0.1l0.2,0.2c0.3,0.2,0.5,0.3,1,0.3
	c1,0,1.7,0.1,3.4,0.1h0.9c2,0,2.8-0.1,3.7-0.1c0.4,0,0.6-0.1,0.9-0.3l0.3-0.2c0.1-0.1,0.1-0.1,0.2-0.1s0.1,0.1,0.2,0.3
	c0,0.2,0.4,2.5,0.5,3.3c0,0.1,0,0.1-0.1,0.1l-0.3,0.1c-0.1,0-0.1,0-0.1-0.1c-0.1-0.3-0.7-1.8-1.3-2c-0.5-0.3-2.3-0.3-3.2-0.3h-0.5
	v5.2c0,0.3,0,5.4,0,5.7c0,0.5,0.2,0.7,0.6,0.7h1.2c0.2,0,0.2,0.1,0.2,0.2v0.4c0,0.1,0,0.1-0.2,0.1s-0.8-0.1-2.6-0.1
	c-1.8,0-2.5,0.1-2.8,0.1c-0.1,0-0.2-0.1-0.2-0.2v-0.3c0-0.1,0-0.2,0.1-0.2h1.2c0.4,0,0.6-0.2,0.6-0.4c0.1-0.5,0.1-6.1,0.1-6.5v-4.8
	H-439.2z"/>
<rect x="-618.8" y="864" fill="#C4AF6C" width="97.4" height="10.4"/>
<rect x="-618.8" y="951" fill="#C4AF6C" width="97.4" height="10.4"/>
<rect x="-531.8" y="864" fill="#C4AF6C" width="10.4" height="97.4"/>
<rect x="-618.8" y="864" fill="#C4AF6C" width="10.4" height="97.4"/>
<g>
	<path fill="#FFFFFF" d="M-750.9,989.6c3.4,0,6.1,0.6,8.1,2c1.8,1.4,3,3.6,3,6.8c0,6.2-4.7,9.4-9.4,10c-0.7,0.1-1.7,0.1-2.3,0.1
		l-3.7-1v7.5c0,4.1,0.5,4.4,5,4.6v1.5h-13.1v-1.5c4-0.3,4.4-0.7,4.4-4.6v-19.2c0-4.3-0.4-4.5-4.1-4.7v-1.5H-750.9z M-755,1005.7
		c0.6,0.3,2,0.7,3.8,0.7c3.4,0,7.2-1.8,7.2-7.7c0-5.1-3.4-7.5-7.6-7.5c-1.5,0-2.6,0.3-2.9,0.6c-0.4,0.4-0.6,0.9-0.6,2.3V1005.7z"/>
	<path fill="#FFFFFF" d="M-715.3,1014.5c-0.2,1.2-1.1,5.3-1.4,6.5h-19.8v-1.2c3.8-0.3,4.1-0.6,4.1-4v-16.2c0-3.6-0.3-3.7-3.6-4v-1.2
		h18.3c0,0.9,0.2,3.8,0.4,6l-1.3,0.1c-0.4-1.7-0.8-2.6-1.3-3.5c-0.5-0.9-1.6-1.2-4.5-1.2h-3.5c-1.2,0-1.3,0.1-1.3,1.3v9.2h4.1
		c3.7,0,3.9-0.4,4.4-3.1h1.3v7.9h-1.3c-0.6-2.9-0.8-3.1-4.4-3.1h-4.1v7.6c0,1.9,0.3,2.8,1.1,3.4c0.8,0.5,2.2,0.5,4.4,0.5
		c3.1,0,4.3-0.4,5.2-1.4c0.7-0.8,1.5-2.2,2-3.9L-715.3,1014.5z"/>
	<path fill="#FFFFFF" d="M-688.5,1021.4c-0.6,0-1.1,0-1.6,0c-2.5-0.1-4.3-1-6.3-3.7c-1.4-2-3-4.6-4.2-6.6c-0.7-1.1-1.4-1.6-3.7-1.6
		h-1.5v6.4c0,3.5,0.4,3.7,3.7,3.9v1.3h-10.7v-1.3c3.5-0.2,3.8-0.4,3.8-3.9v-16.3c0-3.5-0.3-3.6-3.6-3.9v-1.2h10
		c2.8,0,4.9,0.4,6.4,1.3c1.7,1.1,2.8,2.9,2.8,5.4c0,3.6-2.1,5.8-5.2,7.1c0.8,1.3,2.5,4,3.7,5.9c1.6,2.2,2.3,3,3.3,4.1
		c1.1,1.2,2.2,1.7,3.2,2L-688.5,1021.4z M-703.6,1008.1c2.2,0,3.5-0.4,4.5-1.2c1.6-1.2,2.3-2.8,2.3-5.1c0-4.4-3.1-6-6.3-6
		c-1.2,0-1.9,0.2-2.2,0.4c-0.4,0.3-0.5,0.8-0.5,1.9v10H-703.6z"/>
	<path fill="#FFFFFF" d="M-666.3,1014.5c-0.2,1.2-1.1,5.3-1.4,6.5h-19.8v-1.2c3.8-0.3,4.1-0.6,4.1-4v-16.2c0-3.6-0.3-3.7-3.6-4v-1.2
		h18.3c0,0.9,0.2,3.8,0.4,6l-1.3,0.1c-0.4-1.7-0.8-2.6-1.3-3.5c-0.5-0.9-1.6-1.2-4.5-1.2h-3.5c-1.2,0-1.3,0.1-1.3,1.3v9.2h4.1
		c3.7,0,3.9-0.4,4.4-3.1h1.3v7.9h-1.3c-0.6-2.9-0.8-3.1-4.4-3.1h-4.1v7.6c0,1.9,0.3,2.8,1.1,3.4c0.8,0.5,2.2,0.5,4.4,0.5
		c3.1,0,4.3-0.4,5.2-1.4c0.7-0.8,1.5-2.2,2-3.9L-666.3,1014.5z"/>
	<path fill="#FFFFFF" d="M-636.9,1009.9c-2.5,0.4-2.7,0.5-2.7,2.9v3.5c0,1.4,0,2.7,0.3,3.9c-2.6,0.6-6,1.5-9.2,1.5
		c-8.9,0-14.8-5.6-14.8-13.7c0-9.6,7.7-14,15.4-14c3.5,0,6.7,0.9,8,1.2c0.1,1.5,0.3,3.8,0.7,6.4l-1.2,0.2c-1.1-5.2-4.1-6.3-7.9-6.3
		c-6.4,0-11.1,4.4-11.1,12c0,5.9,3.6,12.6,11.6,12.6c1.5,0,2.8-0.3,3.7-0.8c0.9-0.4,1.4-0.9,1.4-2.7v-3.1c0-3-0.3-3.2-4.4-3.6v-1.2
		h10.2V1009.9z"/>
	<path fill="#FFFFFF" d="M-610.2,1021.4c-0.6,0-1.1,0-1.6,0c-2.5-0.1-4.3-1-6.3-3.7c-1.4-2-3-4.6-4.2-6.6c-0.7-1.1-1.4-1.6-3.7-1.6
		h-1.5v6.4c0,3.5,0.4,3.7,3.7,3.9v1.3h-10.7v-1.3c3.5-0.2,3.8-0.4,3.8-3.9v-16.3c0-3.5-0.3-3.6-3.6-3.9v-1.2h10
		c2.8,0,4.9,0.4,6.4,1.3c1.7,1.1,2.8,2.9,2.8,5.4c0,3.6-2.1,5.8-5.2,7.1c0.8,1.3,2.5,4,3.7,5.9c1.6,2.2,2.3,3,3.3,4.1
		c1.1,1.2,2.2,1.7,3.2,2L-610.2,1021.4z M-625.2,1008.1c2.2,0,3.5-0.4,4.5-1.2c1.6-1.2,2.3-2.8,2.3-5.1c0-4.4-3.1-6-6.3-6
		c-1.2,0-1.9,0.2-2.2,0.4c-0.4,0.3-0.5,0.8-0.5,1.9v10H-625.2z"/>
	<path fill="#FFFFFF" d="M-608.8,1021.1v-1.3c3.5-0.2,3.8-0.4,3.8-3.9v-16.3c0-3.5-0.3-3.6-3.8-3.9v-1.2h10.7v1.2
		c-3.4,0.3-3.8,0.4-3.8,3.9v16.3c0,3.6,0.4,3.7,3.8,3.9v1.3H-608.8z"/>
	<path fill="#FFFFFF" d="M-566.8,995.7c-2.4,0.1-3.4,0.7-3.6,2.4c-0.1,1.2-0.2,3.1-0.2,7v16.4h-1.3l-17.3-21.4h-0.1v10.2
		c0,3.7,0.1,5.7,0.2,6.9c0.3,2.1,1.3,2.6,4,2.7v1.3h-9.9v-1.3c2.4-0.1,3.5-0.6,3.7-2.6c0.1-1.3,0.3-3.3,0.3-7v-9c0-3-0.1-3-0.8-4
		c-0.8-1-1.8-1.3-3.8-1.5v-1.2h5.9l17.1,20.9h0.1V1005c0-3.9-0.1-5.7-0.3-6.8c-0.2-1.8-1.2-2.4-4.1-2.5v-1.2h10V995.7z"/>
	<path fill="#FFFFFF" d="M-543.3,1014.5c-0.2,1.2-1.1,5.3-1.4,6.5h-19.8v-1.2c3.8-0.3,4.1-0.6,4.1-4v-16.2c0-3.6-0.3-3.7-3.6-4v-1.2
		h18.3c0,0.9,0.2,3.8,0.4,6l-1.3,0.1c-0.4-1.7-0.8-2.6-1.3-3.5c-0.5-0.9-1.6-1.2-4.5-1.2h-3.5c-1.2,0-1.3,0.1-1.3,1.3v9.2h4.1
		c3.7,0,3.9-0.4,4.4-3.1h1.3v7.9h-1.3c-0.6-2.9-0.8-3.1-4.4-3.1h-4.1v7.6c0,1.9,0.3,2.8,1.1,3.4c0.8,0.5,2.2,0.5,4.4,0.5
		c3.1,0,4.3-0.4,5.2-1.4c0.7-0.8,1.5-2.2,2-3.9L-543.3,1014.5z"/>
	<path fill="#FFFFFF" d="M-501.6,1021.1c-7.1,0-10.8-2.5-13-4.2c-3.1,2.7-6.7,4.5-10.1,4.5c-3.5,0-6.4-1-8.7-3
		c-2.3-2-3.4-4.5-3.4-7.6c0-2.5,0.9-4.7,2.6-6.4c1-1,2.3-1.7,4.1-2.1c-1.2-1.6-1.9-3.2-1.9-4.7c0-1.7,0.6-3,1.9-4
		c1.3-1,2.9-1.5,4.9-1.5c1,0,2.1,0.2,3.3,0.6l1,0.4l0.2,0c0.1,0,0.3-0.1,0.4-0.2c0.1-0.1,0.3-0.2,0.4-0.2c0.4,0,0.6,0.5,0.6,1.5
		l0.1,1.2l0.1,1.7c0,0.3,0,0.6,0,0.7c0,0.3-0.2,0.5-0.5,0.5c-0.2,0-0.3-0.2-0.4-0.5c-0.4-1.1-1.2-2.2-2.4-3.1
		c-1.2-0.9-2.4-1.3-3.6-1.3c-1,0-1.8,0.3-2.5,0.9c-0.7,0.6-1,1.3-1,2.2c0,0.8,0.3,1.7,1,2.7c0.7,1,1.8,2.3,3.3,4l5.3,5.5
		c1.4,1.4,3,3.3,5.5,5.4c0.7-1.2,1.4-2.6,1.4-4.1c0-1.1-0.2-2-0.7-2.8c-0.4-0.7-1-1.2-1.8-1.3l-1-0.2c-0.4-0.1-0.6-0.3-0.6-0.6
		c0-0.2,0.2-0.3,0.5-0.3c0.1,0,0.3,0,0.6,0.1c0.4,0.1,1.6,0.1,3.6,0.1c0.6,0,1.2,0,1.7-0.1c0.5,0,0.8-0.1,1.1-0.1
		c0.3,0,0.4,0.1,0.4,0.3c0,0.2-0.2,0.4-0.6,0.5c-0.4,0.2-0.8,0.5-0.9,0.8c-0.2,0.4-0.3,1.1-0.4,2.1c-0.2,2.4-1,4.8-2.1,6.6
		c4.2,3.5,6.6,4.8,10.5,4.5 M-516.4,1015.4c0,0-9.8-8.6-12.2-10.9c-1-1-2-1.4-2.6-1.4c-0.9,0-1.9,0.6-2.8,1.7
		c-0.9,1.1-1.4,2.6-1.4,4.2c0,2.1,0.8,4,2.4,5.9c2.2,2.6,5.1,3.8,8.5,3.8C-521.6,1018.8-518.8,1018-516.4,1015.4"/>
	<path fill="#FFFFFF" d="M-488,1004c4.5,0.8,8.2,2.8,8.2,7.7c0,3.3-1.8,5.8-4.7,7.4c-2.5,1.4-5.6,1.9-9.4,1.9h-7.7l-2.8-1.5
		c4.4-0.3,4.6-0.5,4.6-4.5v-19.5c0-3.9-0.2-4.2-4.1-4.5v-1.5h12.3c3.6,0,5.7,0.6,7.1,1.6c1.7,1.2,2.7,3.4,2.7,5.6
		C-481.9,1001.3-485.7,1003.2-488,1004L-488,1004z M-493.6,1003.4c5.3,0,7.7-2.1,7.7-6.1c0-3.1-1.8-6.1-6.7-6.1
		c-1.3,0-2.5,0.2-2.9,0.5c-0.4,0.3-0.6,0.8-0.6,2.4v9.3H-493.6z M-496.2,1015c0,3.5,0.9,4.4,4.1,4.4c4.3-0.1,7.9-2,7.9-7.1
		c0-5-3.6-7-9.4-7h-2.6V1015z"/>
	<path fill="#FFFFFF" d="M-456.3,1014.6c-0.2,1.2-1.1,5.2-1.5,6.4h-18.5v-1.3c3.5-0.2,3.8-0.4,3.8-3.9v-16.3c0-3.4-0.3-3.6-3.7-3.9
		v-1.2h10.7v1.2c-3.4,0.2-3.8,0.4-3.8,3.9v16c0,2.2,0.3,3,1,3.5c0.8,0.4,2.3,0.5,4,0.5c2.3,0,3.6-0.2,4.6-1.2c0.8-0.8,1.5-2,2.1-4
		L-456.3,1014.6z"/>
	<path fill="#FFFFFF" d="M-437.5,1021.1v-1.3c2.8-0.3,3.1-0.6,2.6-2.2l-2.3-6.2h-9c-0.6,1.7-1.2,3.4-1.7,5.1
		c-0.9,2.7-0.5,3.1,2.6,3.3v1.3h-9.1v-1.3c2.7-0.4,3.2-0.6,4.7-4.3l8.3-21.3l1.4-0.4c2.5,6.8,5.3,14.9,7.9,21.8
		c1.2,3.4,1.8,3.8,4.5,4v1.3H-437.5z M-441.5,998.8L-441.5,998.8c-1.4,3.6-2.7,7.2-4,10.7h7.7L-441.5,998.8z"/>
	<path fill="#FFFFFF" d="M-401.7,1014.1c-0.5,2-1.6,5.1-2.3,6.4c-1.2,0.3-4.5,1.1-7.6,1.1c-9.9,0-14.4-7-14.4-13.5
		c0-8.7,6.7-14.3,15.7-14.3c3.3,0,6,0.9,7.2,1.1c0.3,2.4,0.6,4,0.8,6.2l-1.3,0.3c-1-4.2-3.2-6.1-7.9-6.1c-6.9,0-10.7,5.6-10.7,11.8
		c0,7.7,4.7,12.8,10.9,12.8c4.2,0,6.2-2.1,8.3-6.4L-401.7,1014.1z"/>
	<path fill="#FFFFFF" d="M-379.4,1021.1c-3.3-3.7-6.5-7.5-10.4-11.9c-1-1.2-1.6-1.3-2.4-1.1v7.8c0,3.5,0.4,3.8,3.9,4v1.3h-10.5v-1.3
		c3.2-0.2,3.6-0.5,3.6-4v-16c0-3.7-0.4-3.9-3.7-4.1v-1.2h10.5v1.2c-3.2,0.3-3.7,0.5-3.7,4.1v7c1-0.2,1.7-0.7,2.9-1.8
		c2.2-2,4.9-4.8,6.9-7.2c1.2-1.4,1.2-1.8-0.6-2l-1-0.1v-1.2h9.9v1.2c-3.2,0.3-4.1,0.7-6.7,3.1c-1.4,1.3-4.5,4.4-7.4,7.3
		c3.2,3.9,7.9,9.1,9.7,11c2.2,2.3,3.1,2.6,5.1,2.8v1.3H-379.4z"/>
</g>
</svg>
