<?xml version="1.0" encoding="utf-8"?>
<!-- Generator: Adobe Illustrator 18.1.1, SVG Export Plug-In . SVG Version: 6.00 Build 0)  -->
<svg version="1.1" id="Layer_1" xmlns="http://www.w3.org/2000/svg" xmlns:xlink="http://www.w3.org/1999/xlink" x="0px" y="0px"
	 width="400.3px" height="373.7px" viewBox="-759.6 774.4 400.3 373.7" enable-background="new -759.6 774.4 400.3 373.7"
	 xml:space="preserve">
<g>
	<rect x="-756.5" y="1105" fill="#FFFFFF" width="396.1" height="1.1"/>
	<g>
		<rect x="-646.7" y="774.4" fill="#C5B06C" width="164.2" height="17.5"/>
		<rect x="-646.7" y="921.1" fill="#C5B06C" width="164.2" height="17.5"/>
		<rect x="-500.1" y="774.4" fill="#C5B06C" width="17.5" height="164.2"/>
		<rect x="-646.7" y="774.4" fill="#C5B06C" width="17.5" height="164.2"/>
	</g>
	<g>
		<path fill="#FFFFFF" d="M-756.7,1016.4h-2.3l0.4-16.4h66.3l0.3,16.4h-2.2c-0.8-4.5-1.8-7.7-3.2-9.8c-1.3-2-2.8-3.2-4.3-3.7
			s-4.2-0.7-7.9-0.7h-11v48.2c0,5.3,0.1,8.9,0.4,10.5c0.3,1.7,0.9,2.9,2,3.7c1.1,0.8,3.2,1.2,6.2,1.2h3.3v2.3h-33.9v-2.3h3.5
			c2.9,0,4.9-0.4,6.1-1.1c1.1-0.7,1.8-1.9,2.2-3.5c0.3-1.6,0.5-5.2,0.5-10.9v-48.2h-10.2c-4.4,0-7.4,0.2-8.9,0.6
			c-1.5,0.4-2.9,1.7-4.3,3.8C-755,1008.9-756,1012.1-756.7,1016.4z"/>
		<path fill="#FFFFFF" d="M-666.3,1002.3v-2.3h31.2v2.3h-1.5c-3.4,0-5.6,0.3-6.6,0.8s-1.7,1.6-2.1,3.1c-0.4,1.5-0.5,5.1-0.5,10.8
			v33.5c0,5.4,0.1,8.9,0.4,10.6c0.3,1.7,0.9,2.9,2,3.7c1.1,0.8,3.2,1.2,6.3,1.2h2v2.3h-31.2v-2.3h2c2.9,0,4.9-0.4,6.1-1.1
			c1.1-0.7,1.8-1.9,2.1-3.5c0.3-1.6,0.5-5.2,0.5-10.9V1017c0-5.4-0.2-8.9-0.5-10.5c-0.3-1.6-1-2.7-2-3.3c-1-0.6-3.3-0.9-6.8-0.9
			H-666.3L-666.3,1002.3z"/>
		<path fill="#FFFFFF" d="M-606.9,1016.4h-2.3l0.4-16.4h66.3l0.4,16.4h-2.2c-0.8-4.5-1.8-7.7-3.2-9.8c-1.3-2-2.8-3.2-4.3-3.7
			s-4.2-0.7-7.9-0.7h-11v48.2c0,5.3,0.1,8.9,0.4,10.5c0.3,1.7,0.9,2.9,2,3.7c1.1,0.8,3.2,1.2,6.2,1.2h3.3v2.3h-34.1v-2.3h3.5
			c2.9,0,4.9-0.4,6.1-1.1c1.1-0.7,1.8-1.9,2.2-3.5c0.3-1.6,0.5-5.2,0.5-10.9v-48.2h-10.1c-4.4,0-7.4,0.2-8.9,0.6
			c-1.5,0.4-2.9,1.7-4.3,3.8C-605.1,1008.9-606.2,1012.1-606.9,1016.4z"/>
		<path fill="#FFFFFF" d="M-483.3,1043.1h-26l-1.8,4.3c-2.6,6.3-3.9,10.4-3.9,12.3c0,2.1,0.7,3.6,2.1,4.7c1.4,1.1,3.2,1.6,5.4,1.6
			v2.3h-20.3v-2.3c3-0.5,5.3-1.5,6.8-3.2c1.5-1.7,3.3-5.2,5.3-10.5c0.2-0.5,1-2.5,2.4-5.8l19.9-47.4h2l22.8,54.3l3.1,7.2
			c0.7,1.6,1.7,2.9,2.8,3.8c1.2,0.9,3,1.5,5.4,1.7v2.3h-26.9v-2.3c3.3,0,5.5-0.2,6.7-0.7s1.7-1.5,1.7-2.9c0-0.7-0.8-2.9-2.3-6.6
			L-483.3,1043.1z M-484.1,1040.9l-12.1-29.1l-12,29.1H-484.1z"/>
		<path fill="#FFFFFF" d="M-373.8,1069.9l-48.3-64v47.4c0,3.9,0.2,6.5,0.6,7.8c0.4,1.2,1.5,2.4,3.3,3.4s4.5,1.6,8.2,1.6v2.3h-25.5
			v-2.3c3.3-0.2,5.7-0.8,7.5-1.8c1.7-1,2.7-2,3.1-3.1c0.3-1.1,0.5-3.7,0.5-7.9v-36.2c0-5.2-0.2-8.8-0.7-10.5
			c-0.5-1.8-1.3-2.9-2.3-3.4c-1.1-0.5-3.4-0.8-7.1-0.8v-2.3h20.2l40.5,53.5v-40.9c0-3-0.3-5.1-0.9-6.4c-0.6-1.2-1.9-2.2-3.8-2.9
			c-1.9-0.7-4.2-1.1-6.9-1.1v-2.3h24.8v2.3c-2.9,0.2-5.2,0.8-6.8,1.7c-1.7,0.9-2.7,1.9-3.2,3.1s-0.7,3.3-0.7,6.2v56.5L-373.8,1069.9
			L-373.8,1069.9z"/>
	</g>
	<g>
		<path fill="#C5B06C" d="M-755.6,1143.1c-0.1,0.4-1,2.7-1,3.3c0,0.4,0.2,0.8,0.7,0.8h0.6c0.2,0,0.2,0.1,0.2,0.1v0.4
			c0,0.1,0,0.2-0.2,0.2c-0.2,0-0.9-0.1-2.4-0.1c-1.3,0-1.7,0.1-1.9,0.1c-0.1,0-0.1-0.1-0.1-0.2v-0.3c0-0.1,0-0.2,0.1-0.2h0.5
			c0.4,0,0.8-0.2,1.2-0.8c0.2-0.4,1.5-3.4,2.1-4.9c0.1-0.3,1.6-4,1.7-4.5c0.1-0.2,0.1-0.4,0-0.6c-0.1-0.1-0.1-0.2-0.1-0.2
			c0-0.1,0-0.1,0.2-0.2c0.6-0.1,1.7-0.6,2-0.9c0.1-0.1,0.1-0.2,0.2-0.2c0.1,0,0.1,0.1,0.2,0.3c0.3,1.1,1.7,4.9,2,6
			c0.4,1.3,1.5,4.5,1.8,5c0.3,0.6,0.8,0.8,1,0.8h0.6c0.1,0,0.1,0.1,0.1,0.2v0.3c0,0.1,0,0.2-0.2,0.2c-0.3,0-0.7-0.1-2.9-0.1
			c-1.5,0-2.1,0.1-2.4,0.1c-0.2,0-0.2-0.1-0.2-0.2v-0.3c0-0.1,0-0.2,0.1-0.2h0.5c0.5,0,0.6-0.2,0.5-0.6c-0.2-0.6-0.8-2.8-1-3.4
			H-755.6z M-751.9,1142.4c-0.2-0.5-1.2-4.1-1.3-4.6c-0.1-0.3-0.1-0.4-0.2-0.4c-0.1,0-0.2,0.1-0.2,0.2c-0.1,0.2-1.6,4.3-1.7,4.7
			H-751.9z"/>
		<path fill="#C5B06C" d="M-741,1144c0.1,0,0.1,0,0.1,0.1c0,0.5,0.3,1.3,0.7,1.9c0.5,0.8,1.4,1.2,2.2,1.2c0.8,0,2.2-0.6,2.2-1.9
			c0-1.4-0.3-1.8-2.6-2.7c-0.5-0.2-1.6-0.7-2.5-1.5c-0.6-0.5-0.9-1.4-0.9-2.4c0-1,0.3-1.8,1.3-2.5c0.8-0.6,1.5-0.8,2.5-0.8
			c1.3,0,2,0.2,2.3,0.3c0.2,0.1,0.3,0,0.4-0.1l0.2-0.2c0.1-0.1,0.2-0.1,0.3-0.1c0.1,0,0.2,0.2,0.2,0.3l0.3,2.9c0,0.1,0,0.1-0.1,0.1
			l-0.4,0.1c-0.1,0-0.2,0-0.2-0.1c-0.2-0.5-0.5-1.2-1.1-1.8c-0.4-0.5-1-0.7-1.7-0.7c-1.3,0-1.9,1.1-1.9,1.6c0,0.6,0,1.2,0.5,1.6
			c0.5,0.5,1.5,0.9,2.3,1.1c0.8,0.2,1.5,0.7,2.2,1.3c0.7,0.6,1,1.4,1,2.6c0,2.1-1.5,3.8-3.8,3.8c-1.6,0-2.4-0.3-3.1-0.7
			c-0.2-0.1-0.3-0.2-0.4-0.2c-0.1,0-0.2,0.1-0.3,0.3c-0.1,0.2-0.2,0.2-0.3,0.2c-0.2,0-0.3-0.1-0.2-0.3l0.3-3.3
			c0-0.1,0.1-0.1,0.1-0.1L-741,1144z"/>
		<path fill="#C5B06C" d="M-727.5,1144c0.1,0,0.1,0,0.1,0.1c0,0.5,0.3,1.3,0.7,1.9c0.5,0.8,1.4,1.2,2.2,1.2c0.8,0,2.2-0.6,2.2-1.9
			c0-1.4-0.3-1.8-2.6-2.7c-0.5-0.2-1.6-0.7-2.5-1.5c-0.6-0.5-0.9-1.4-0.9-2.4c0-1,0.3-1.8,1.3-2.5c0.8-0.6,1.5-0.8,2.5-0.8
			c1.3,0,2,0.2,2.3,0.3c0.2,0.1,0.3,0,0.4-0.1l0.2-0.2c0.1-0.1,0.2-0.1,0.3-0.1c0.1,0,0.2,0.2,0.2,0.3l0.3,2.9c0,0.1,0,0.1-0.1,0.1
			l-0.4,0.1c-0.1,0-0.2,0-0.2-0.1c-0.2-0.5-0.5-1.2-1.1-1.8c-0.4-0.5-1-0.7-1.7-0.7c-1.3,0-1.9,1.1-1.9,1.6c0,0.6,0,1.2,0.5,1.6
			c0.5,0.5,1.5,0.9,2.3,1.1c0.8,0.2,1.5,0.7,2.2,1.3c0.7,0.6,1,1.4,1,2.6c0,2.1-1.5,3.8-3.8,3.8c-1.6,0-2.4-0.3-3.1-0.7
			c-0.2-0.1-0.3-0.2-0.4-0.2c-0.1,0-0.2,0.1-0.3,0.3c-0.1,0.2-0.2,0.2-0.3,0.2c-0.2,0-0.3-0.1-0.2-0.3l0.3-3.3
			c0-0.1,0.1-0.1,0.1-0.1L-727.5,1144z"/>
		<path fill="#C5B06C" d="M-711,1141.3c0.8,0,1.6-0.1,1.8-0.1c0.3-0.1,0.5-0.2,0.8-0.5c0.2-0.3,0.4-0.7,0.4-1.1
			c0-0.1,0.1-0.2,0.1-0.2l0.5,0.1c0.1,0,0.2,0,0.1,0.1c-0.1,0.3-0.1,1.2-0.1,1.8c0,0.8,0.1,1.6,0.1,2c0,0.1-0.1,0.1-0.1,0.1
			l-0.4,0.1c-0.1,0-0.1,0-0.1-0.1c-0.1-0.3-0.2-0.7-0.3-0.9c-0.2-0.3-0.6-0.6-1-0.6c-0.5-0.1-1-0.1-1.8-0.1v1c0,0.9,0.1,2.6,0.1,2.9
			c0,0.9,0.2,1.2,0.4,1.3c0.3,0.1,0.6,0.2,1.5,0.2c0.3,0,1,0,1.4-0.1c0.3,0,0.9-0.2,1.3-0.6c0.5-0.4,1.4-1.4,1.8-1.8
			c0.1-0.1,0.1-0.1,0.2-0.1l0.3,0.2c0.1,0,0.1,0.1,0.1,0.1l-0.8,2.6c-0.1,0.2-0.2,0.3-0.4,0.3c-0.1,0-0.5,0-1.6,0c-1.1,0-3,0-6,0
			c-0.6,0-1.1,0-1.5,0c-0.4,0-0.6,0-0.8,0c-0.1,0-0.2-0.1-0.2-0.2v-0.4c0-0.1,0.1-0.2,0.2-0.2h0.5c0.8,0,0.9-0.1,0.9-0.7v-5.8
			c0-1.4,0-3.5-0.1-3.7c-0.1-0.6-0.2-0.7-0.7-0.7h-0.7c-0.1,0-0.1-0.1-0.1-0.2v-0.4c0-0.1,0-0.1,0.1-0.1c0.4,0,1,0.1,2.6,0.1l6.1,0
			c0.3,0,0.6,0,0.7,0s0.1,0,0.1,0.1c0.1,0.2,0.6,2.6,0.7,2.8c0,0.1,0,0.1-0.1,0.2l-0.3,0.1c-0.1,0-0.2,0-0.2-0.1
			c-0.1-0.1-1.7-1.7-2.1-1.9c-0.4-0.2-0.9-0.4-1.3-0.5l-2.3-0.1L-711,1141.3z"/>
		<path fill="#C5B06C" d="M-695,1136.5h-0.6c-0.6,0-1.6,0-2.3,0.3c-0.4,0.3-1.2,1.3-1.6,1.9c-0.1,0.1-0.1,0.1-0.2,0.1l-0.4-0.1
			c-0.1,0-0.1-0.1-0.1-0.2c0.2-0.7,0.8-3,0.8-3.3c0.1-0.2,0.1-0.3,0.3-0.3s0.2,0.1,0.3,0.3c0.2,0.2,0.5,0.4,1.2,0.4
			c0.9,0.1,1.7,0.1,3.5,0.1h1c1.9,0,2.7-0.1,3.4-0.1c0.4,0,1.1-0.2,1.3-0.4c0.2-0.2,0.3-0.3,0.4-0.3c0.1,0,0.2,0.1,0.2,0.3
			c0.1,0.4,0.4,2.5,0.5,3.4c0,0.1,0,0.1-0.1,0.2l-0.4,0.1c-0.1,0-0.1,0-0.2-0.2c-0.4-0.6-1.1-1.5-1.5-1.9c-0.4-0.3-2-0.3-2.4-0.3
			h-0.6v4.7c0,0.2,0,5.1,0,5.3c0,0.4,0.2,0.7,0.6,0.7h0.8c0.2,0,0.2,0.1,0.2,0.2v0.4c0,0.1,0,0.1-0.2,0.1c-0.2,0-0.7-0.1-2.7-0.1
			c-1.9,0-2.6,0.1-2.8,0.1c-0.1,0-0.2-0.1-0.2-0.2v-0.3c0-0.1,0-0.2,0.1-0.2h0.9c0.3,0,0.6-0.2,0.6-0.5c0-0.4,0-5.6,0-6V1136.5z"/>
		<path fill="#C5B06C" d="M-673.7,1145.6c0.1,0.6,0.3,1.6,0.9,1.6h0.7c0.1,0,0.1,0.1,0.1,0.1v0.5c0,0.1,0,0.1-0.2,0.1
			c-0.2,0-0.7-0.1-1.9-0.1c-1.5,0-2.1,0.1-2.3,0.1c-0.1,0-0.2,0-0.2-0.2v-0.4c0-0.1,0-0.1,0.1-0.1h0.7c0.6,0,0.8-0.8,0.8-1.3
			c0.2-1.2,0.3-5.3,0.3-5.6l0-2.6c0-0.8-0.2-1.3-1-1.3h-0.6c-0.1,0-0.1-0.1-0.1-0.1v-0.5c0-0.1,0-0.1,0.1-0.1c0.2,0,0.6,0.1,2.7,0.1
			c0.8,0,1.4-0.1,1.6-0.1c0.2,0,0.3,0,0.4,0.3c1.1,2.9,2.4,5.8,3.4,8.4c0.2-0.3,1.5-3.5,1.6-3.8c0.1-0.2,1.8-4.3,1.9-4.6
			c0.1-0.2,0.3-0.2,0.8-0.2c2.7,0,3.3-0.1,3.5-0.1c0.1,0,0.1,0.1,0.1,0.2v0.4c0,0.1,0,0.2-0.1,0.2h-0.8c-0.4,0-0.5,0.3-0.5,0.7
			c0,0.3,0,4.5,0,4.9c0,0.3,0.1,4.1,0.1,4.4c0,0.7,0.2,0.9,0.4,0.9h0.8c0.1,0,0.1,0.1,0.1,0.1v0.4c0,0.1,0,0.2-0.2,0.2
			c-0.2,0-0.5-0.1-2.6-0.1c-1.8,0-2.5,0.1-2.7,0.1c-0.1,0-0.1-0.1-0.1-0.2v-0.4c0-0.1,0-0.1,0.1-0.1h1c0.3,0,0.5-0.1,0.5-0.6
			c0-0.2,0.1-3.3,0.1-4.5v-5.2h-0.1c-0.2,0.3-2.1,5-2.4,5.7c-0.4,0.8-1.9,4.6-2,4.8c-0.1,0.1-0.2,0.4-0.4,0.4
			c-0.1,0-0.2-0.1-0.3-0.3c-0.1-0.1-2.4-5.5-2.5-5.8c-0.3-0.8-1.9-4.6-2.1-4.9c-0.1,0.2-0.1,4.6-0.1,4.8
			C-673.8,1141.7-673.8,1144.1-673.7,1145.6z"/>
		<path fill="#C5B06C" d="M-652.5,1143.1c-0.1,0.4-1,2.7-1,3.3c0,0.4,0.2,0.8,0.7,0.8h0.6c0.2,0,0.2,0.1,0.2,0.1v0.4
			c0,0.1,0,0.2-0.2,0.2c-0.2,0-0.9-0.1-2.4-0.1c-1.3,0-1.7,0.1-1.9,0.1c-0.1,0-0.1-0.1-0.1-0.2v-0.3c0-0.1,0-0.2,0.1-0.2h0.5
			c0.4,0,0.8-0.2,1.2-0.8c0.2-0.4,1.5-3.4,2.1-4.9c0.1-0.3,1.6-4,1.7-4.5c0.1-0.2,0.1-0.4,0-0.6c-0.1-0.1-0.1-0.2-0.1-0.2
			c0-0.1,0-0.1,0.2-0.2c0.6-0.1,1.7-0.6,2-0.9c0.1-0.1,0.1-0.2,0.2-0.2c0.1,0,0.1,0.1,0.2,0.3c0.3,1.1,1.7,4.9,2,6
			c0.4,1.3,1.5,4.5,1.8,5c0.3,0.6,0.8,0.8,1,0.8h0.6c0.1,0,0.1,0.1,0.1,0.2v0.3c0,0.1,0,0.2-0.2,0.2c-0.3,0-0.7-0.1-2.9-0.1
			c-1.5,0-2.1,0.1-2.4,0.1c-0.2,0-0.2-0.1-0.2-0.2v-0.3c0-0.1,0-0.2,0.1-0.2h0.5c0.5,0,0.6-0.2,0.5-0.6c-0.2-0.6-0.8-2.8-1-3.4
			H-652.5z M-648.8,1142.4c-0.2-0.5-1.2-4.1-1.3-4.6c-0.1-0.3-0.1-0.4-0.2-0.4c-0.1,0-0.2,0.1-0.2,0.2c-0.1,0.2-1.6,4.3-1.7,4.7
			H-648.8z"/>
		<path fill="#C5B06C" d="M-628.2,1142.8c0-1.5,0-2.4-0.1-3.2c0-0.7-0.1-2.4-0.2-2.6c-0.1-0.4-0.5-0.7-0.9-0.7h-0.6
			c-0.1,0-0.1-0.1-0.1-0.2v-0.4c0-0.1,0-0.1,0.2-0.1c0.2,0,0.8,0.1,2,0.1c1,0,1.5-0.1,1.7-0.1c0.2,0,0.2,0,0.2,0.1v0.4
			c0,0.1,0,0.2-0.1,0.2h-0.5c-0.3,0-0.5,0.3-0.5,0.9c-0.1,1.2-0.4,5-0.4,7.3v2.9c0,0.3,0,0.6-0.3,0.6c-0.3,0-0.5-0.1-0.7-0.3
			c-0.3-0.3-1.2-1.2-2.2-2.4c-1.3-1.5-2.7-3.1-3-3.5c-0.3-0.3-2.7-3.3-3.1-3.9h-0.1v3.5c0,1.4,0.2,3.5,0.2,4.2c0,1,0.3,1.5,1.1,1.5
			h0.4c0.1,0,0.1,0.1,0.1,0.2v0.4c0,0.1,0,0.1-0.1,0.1c-0.2,0-1.2-0.1-2-0.1c-0.5,0-1.7,0.1-1.9,0.1c-0.1,0-0.1,0-0.1-0.2v-0.4
			c0-0.1,0-0.1,0.1-0.1h0.6c0.4,0,0.7-0.6,0.8-1.7c0-0.3,0.2-3.1,0.2-5.6v-1.5c0-1-0.6-2-1.5-2l-0.4,0c-0.1,0-0.1-0.1-0.1-0.1v-0.5
			c0-0.1,0-0.1,0.1-0.1s0.2,0,0.6,0c0.3,0,0.9,0,1.8,0c0.6,0,1.1,0,1.3,0c0.2,0,0.4,0.1,0.5,0.2c0.1,0.1,3.5,4.3,4.1,4.9
			c0.2,0.3,2.8,3.4,3,3.7h0.1V1142.8z"/>
		<path fill="#C5B06C" d="M-618.9,1143.1c-0.1,0.4-1,2.7-1,3.3c0,0.4,0.2,0.8,0.7,0.8h0.6c0.2,0,0.2,0.1,0.2,0.1v0.4
			c0,0.1,0,0.2-0.2,0.2c-0.2,0-0.9-0.1-2.4-0.1c-1.3,0-1.7,0.1-1.9,0.1c-0.1,0-0.1-0.1-0.1-0.2v-0.3c0-0.1,0-0.2,0.1-0.2h0.5
			c0.4,0,0.8-0.2,1.2-0.8c0.2-0.4,1.5-3.4,2.1-4.9c0.1-0.3,1.6-4,1.7-4.5c0.1-0.2,0.1-0.4,0-0.6c-0.1-0.1-0.1-0.2-0.1-0.2
			c0-0.1,0-0.1,0.2-0.2c0.6-0.1,1.7-0.6,2-0.9c0.1-0.1,0.1-0.2,0.2-0.2c0.1,0,0.1,0.1,0.2,0.3c0.3,1.1,1.7,4.9,2,6
			c0.4,1.3,1.5,4.5,1.8,5c0.3,0.6,0.8,0.8,1,0.8h0.6c0.1,0,0.1,0.1,0.1,0.2v0.3c0,0.1,0,0.2-0.2,0.2c-0.3,0-0.7-0.1-2.9-0.1
			c-1.5,0-2.1,0.1-2.4,0.1c-0.2,0-0.2-0.1-0.2-0.2v-0.3c0-0.1,0-0.2,0.1-0.2h0.5c0.5,0,0.6-0.2,0.5-0.6c-0.2-0.6-0.8-2.8-1-3.4
			H-618.9z M-615.2,1142.4c-0.2-0.5-1.2-4.1-1.3-4.6c-0.1-0.3-0.1-0.4-0.2-0.4c-0.1,0-0.2,0.1-0.2,0.2c-0.1,0.2-1.6,4.3-1.7,4.7
			H-615.2z"/>
		<path fill="#C5B06C" d="M-593.9,1146.2c0,0.2,0.1,0.4,0.1,0.6s-0.1,0.2-0.3,0.3c-1.4,0.7-2.9,1.1-5.1,1.1c-1.8,0-3.9-0.6-5.1-2
			c-1.1-1.2-1.6-2.7-1.6-4.7c0-1.6,0.8-3.2,2-4.3c1.3-1.1,2.8-1.7,4.9-1.7c1.8,0,3.1,0.5,3.7,0.8c0.2,0.1,0.3,0.1,0.4-0.1l0.2-0.3
			c0.1-0.1,0.1-0.2,0.2-0.2c0.2,0,0.2,0.1,0.2,0.3l0.3,3.5c0,0.2,0,0.3-0.1,0.3l-0.5,0.1c-0.1,0-0.2,0-0.2-0.2
			c-0.3-0.8-0.8-1.9-1.6-2.6c-0.7-0.6-1.6-1.1-2.8-1.1c-0.9,0-1.8,0.3-2.6,1.3c-0.8,0.9-1.4,2.4-1.4,3.9c0,2,0.6,3.8,1.5,4.7
			c0.8,0.8,1.5,1.2,2.7,1.2c0.9,0,1.4-0.1,2-0.3c0.4-0.2,0.4-0.7,0.4-1.6v-1.2c0-0.6-0.2-0.8-0.6-0.8h-0.7c-0.1,0-0.1-0.1-0.1-0.2
			v-0.4c0-0.1,0-0.1,0.1-0.1c0.2,0,1,0.1,2.6,0.1c1.6,0,2.3-0.1,2.4-0.1s0.2,0.1,0.2,0.1v0.4c0,0.1,0,0.1-0.1,0.1h-0.5
			c-0.3,0-0.5,0.1-0.5,0.6V1146.2z"/>
		<path fill="#C5B06C" d="M-583.9,1141.3c0.8,0,1.6-0.1,1.8-0.1c0.3-0.1,0.5-0.2,0.8-0.5c0.2-0.3,0.4-0.7,0.4-1.1
			c0-0.1,0.1-0.2,0.1-0.2l0.5,0.1c0.1,0,0.2,0,0.1,0.1c-0.1,0.3-0.1,1.2-0.1,1.8c0,0.8,0.1,1.6,0.1,2c0,0.1-0.1,0.1-0.1,0.1
			l-0.4,0.1c-0.1,0-0.1,0-0.1-0.1c-0.1-0.3-0.2-0.7-0.3-0.9c-0.2-0.3-0.6-0.6-1-0.6c-0.5-0.1-1-0.1-1.8-0.1v1c0,0.9,0.1,2.6,0.1,2.9
			c0,0.9,0.2,1.2,0.4,1.3c0.3,0.1,0.6,0.2,1.5,0.2c0.3,0,1,0,1.4-0.1c0.3,0,0.9-0.2,1.3-0.6c0.5-0.4,1.4-1.4,1.8-1.8
			c0.1-0.1,0.1-0.1,0.2-0.1l0.3,0.2c0.1,0,0.1,0.1,0.1,0.1l-0.8,2.6c-0.1,0.2-0.2,0.3-0.4,0.3c-0.1,0-0.5,0-1.6,0c-1.1,0-3,0-6,0
			c-0.6,0-1.1,0-1.5,0c-0.4,0-0.6,0-0.8,0c-0.1,0-0.2-0.1-0.2-0.2v-0.4c0-0.1,0.1-0.2,0.2-0.2h0.5c0.8,0,0.9-0.1,0.9-0.7v-5.8
			c0-1.4,0-3.5-0.1-3.7c-0.1-0.6-0.2-0.7-0.7-0.7h-0.7c-0.1,0-0.1-0.1-0.1-0.2v-0.4c0-0.1,0-0.1,0.1-0.1c0.4,0,1,0.1,2.6,0.1l6.1,0
			c0.3,0,0.6,0,0.7,0s0.1,0,0.1,0.1c0.1,0.2,0.6,2.6,0.7,2.8c0,0.1,0,0.1-0.1,0.2l-0.3,0.1c-0.1,0-0.2,0-0.2-0.1
			c-0.1-0.1-1.7-1.7-2.1-1.9c-0.4-0.2-0.9-0.4-1.3-0.5l-2.3-0.1L-583.9,1141.3z"/>
		<path fill="#C5B06C" d="M-570.3,1145.6c0.1,0.6,0.3,1.6,0.9,1.6h0.7c0.1,0,0.1,0.1,0.1,0.1v0.5c0,0.1,0,0.1-0.2,0.1
			c-0.2,0-0.7-0.1-1.9-0.1c-1.5,0-2.1,0.1-2.3,0.1c-0.1,0-0.2,0-0.2-0.2v-0.4c0-0.1,0-0.1,0.1-0.1h0.7c0.6,0,0.8-0.8,0.8-1.3
			c0.2-1.2,0.3-5.3,0.3-5.6l0-2.6c0-0.8-0.2-1.3-1-1.3h-0.6c-0.1,0-0.1-0.1-0.1-0.1v-0.5c0-0.1,0-0.1,0.1-0.1c0.2,0,0.6,0.1,2.7,0.1
			c0.8,0,1.4-0.1,1.6-0.1c0.2,0,0.3,0,0.4,0.3c1.1,2.9,2.4,5.8,3.4,8.4c0.2-0.3,1.5-3.5,1.6-3.8c0.1-0.2,1.8-4.3,1.9-4.6
			c0.1-0.2,0.3-0.2,0.8-0.2c2.7,0,3.3-0.1,3.5-0.1c0.1,0,0.1,0.1,0.1,0.2v0.4c0,0.1,0,0.2-0.1,0.2h-0.8c-0.4,0-0.5,0.3-0.5,0.7
			c0,0.3,0,4.5,0,4.9c0,0.3,0.1,4.1,0.1,4.4c0,0.7,0.2,0.9,0.4,0.9h0.8c0.1,0,0.1,0.1,0.1,0.1v0.4c0,0.1,0,0.2-0.2,0.2
			c-0.2,0-0.5-0.1-2.6-0.1c-1.8,0-2.5,0.1-2.7,0.1c-0.1,0-0.1-0.1-0.1-0.2v-0.4c0-0.1,0-0.1,0.1-0.1h1c0.3,0,0.5-0.1,0.5-0.6
			c0-0.2,0.1-3.3,0.1-4.5v-5.2h-0.1c-0.2,0.3-2.1,5-2.4,5.7c-0.4,0.8-1.9,4.6-2,4.8c-0.1,0.1-0.2,0.4-0.4,0.4
			c-0.1,0-0.2-0.1-0.3-0.3c-0.1-0.1-2.4-5.5-2.5-5.8c-0.3-0.8-1.9-4.6-2.1-4.9c-0.1,0.2-0.1,4.6-0.1,4.8
			C-570.4,1141.7-570.4,1144.1-570.3,1145.6z"/>
		<path fill="#C5B06C" d="M-547.7,1141.3c0.8,0,1.6-0.1,1.8-0.1c0.3-0.1,0.5-0.2,0.8-0.5c0.2-0.3,0.4-0.7,0.4-1.1
			c0-0.1,0.1-0.2,0.1-0.2l0.5,0.1c0.1,0,0.2,0,0.1,0.1c-0.1,0.3-0.1,1.2-0.1,1.8c0,0.8,0.1,1.6,0.1,2c0,0.1-0.1,0.1-0.1,0.1
			l-0.4,0.1c-0.1,0-0.1,0-0.1-0.1c-0.1-0.3-0.2-0.7-0.3-0.9c-0.2-0.3-0.6-0.6-1-0.6c-0.5-0.1-1-0.1-1.8-0.1v1c0,0.9,0.1,2.6,0.1,2.9
			c0,0.9,0.2,1.2,0.4,1.3c0.3,0.1,0.6,0.2,1.5,0.2c0.3,0,1,0,1.4-0.1c0.3,0,0.9-0.2,1.3-0.6c0.5-0.4,1.4-1.4,1.8-1.8
			c0.1-0.1,0.1-0.1,0.2-0.1l0.3,0.2c0.1,0,0.1,0.1,0.1,0.1l-0.8,2.6c-0.1,0.2-0.2,0.3-0.4,0.3c-0.1,0-0.5,0-1.6,0c-1.1,0-3,0-6,0
			c-0.6,0-1.1,0-1.5,0c-0.4,0-0.6,0-0.8,0c-0.1,0-0.2-0.1-0.2-0.2v-0.4c0-0.1,0.1-0.2,0.2-0.2h0.5c0.8,0,0.9-0.1,0.9-0.7v-5.8
			c0-1.4,0-3.5-0.1-3.7c-0.1-0.6-0.2-0.7-0.7-0.7h-0.7c-0.1,0-0.1-0.1-0.1-0.2v-0.4c0-0.1,0-0.1,0.1-0.1c0.4,0,1,0.1,2.6,0.1l6.1,0
			c0.3,0,0.6,0,0.7,0s0.1,0,0.1,0.1c0.1,0.2,0.6,2.6,0.7,2.8c0,0.1,0,0.1-0.1,0.2l-0.3,0.1c-0.1,0-0.2,0-0.2-0.1
			c-0.1-0.1-1.7-1.7-2.1-1.9c-0.4-0.2-0.9-0.4-1.3-0.5l-2.3-0.1L-547.7,1141.3z"/>
		<path fill="#C5B06C" d="M-525.6,1142.8c0-1.5,0-2.4-0.1-3.2c0-0.7-0.1-2.4-0.2-2.6c-0.1-0.4-0.5-0.7-0.9-0.7h-0.6
			c-0.1,0-0.1-0.1-0.1-0.2v-0.4c0-0.1,0-0.1,0.2-0.1c0.2,0,0.8,0.1,2,0.1c1,0,1.5-0.1,1.7-0.1c0.2,0,0.2,0,0.2,0.1v0.4
			c0,0.1,0,0.2-0.1,0.2h-0.5c-0.3,0-0.5,0.3-0.5,0.9c-0.1,1.2-0.4,5-0.4,7.3v2.9c0,0.3,0,0.6-0.3,0.6c-0.3,0-0.5-0.1-0.7-0.3
			c-0.3-0.3-1.2-1.2-2.2-2.4c-1.3-1.5-2.7-3.1-3-3.5c-0.3-0.3-2.7-3.3-3.1-3.9h-0.1v3.5c0,1.4,0.2,3.5,0.2,4.2c0,1,0.3,1.5,1.1,1.5
			h0.4c0.1,0,0.1,0.1,0.1,0.2v0.4c0,0.1,0,0.1-0.1,0.1c-0.2,0-1.2-0.1-2-0.1c-0.5,0-1.7,0.1-1.9,0.1c-0.1,0-0.1,0-0.1-0.2v-0.4
			c0-0.1,0-0.1,0.1-0.1h0.6c0.4,0,0.7-0.6,0.8-1.7c0-0.3,0.2-3.1,0.2-5.6v-1.5c0-1-0.6-2-1.5-2l-0.4,0c-0.1,0-0.1-0.1-0.1-0.1v-0.5
			c0-0.1,0-0.1,0.1-0.1c0.1,0,0.2,0,0.6,0c0.3,0,0.9,0,1.8,0c0.6,0,1.1,0,1.3,0c0.2,0,0.4,0.1,0.5,0.2c0.1,0.1,3.5,4.3,4.1,4.9
			c0.2,0.3,2.8,3.4,3,3.7h0.1V1142.8z"/>
		<path fill="#C5B06C" d="M-514.3,1136.5h-0.6c-0.6,0-1.6,0-2.3,0.3c-0.4,0.3-1.2,1.3-1.6,1.9c-0.1,0.1-0.1,0.1-0.2,0.1l-0.4-0.1
			c-0.1,0-0.1-0.1-0.1-0.2c0.2-0.7,0.8-3,0.8-3.3c0.1-0.2,0.1-0.3,0.3-0.3s0.2,0.1,0.3,0.3c0.2,0.2,0.5,0.4,1.2,0.4
			c0.9,0.1,1.7,0.1,3.5,0.1h1c1.9,0,2.7-0.1,3.4-0.1c0.4,0,1.1-0.2,1.3-0.4c0.2-0.2,0.3-0.3,0.4-0.3s0.2,0.1,0.2,0.3
			c0.1,0.4,0.4,2.5,0.5,3.4c0,0.1,0,0.1-0.1,0.2l-0.4,0.1c-0.1,0-0.1,0-0.2-0.2c-0.4-0.6-1.1-1.5-1.5-1.9c-0.4-0.3-2-0.3-2.4-0.3
			h-0.6v4.7c0,0.2,0,5.1,0,5.3c0,0.4,0.2,0.7,0.6,0.7h0.8c0.2,0,0.2,0.1,0.2,0.2v0.4c0,0.1,0,0.1-0.2,0.1c-0.2,0-0.7-0.1-2.7-0.1
			c-1.9,0-2.6,0.1-2.8,0.1c-0.1,0-0.2-0.1-0.2-0.2v-0.3c0-0.1,0-0.2,0.1-0.2h0.9c0.3,0,0.6-0.2,0.6-0.5c0-0.4,0-5.6,0-6V1136.5z"/>
		<path fill="#C5B06C" d="M-494.1,1144c0.1,0,0.1,0,0.1,0.1c0,0.5,0.3,1.3,0.7,1.9c0.5,0.8,1.4,1.2,2.2,1.2c0.8,0,2.2-0.6,2.2-1.9
			c0-1.4-0.3-1.8-2.6-2.7c-0.5-0.2-1.6-0.7-2.5-1.5c-0.6-0.5-0.9-1.4-0.9-2.4c0-1,0.3-1.8,1.3-2.5c0.8-0.6,1.5-0.8,2.5-0.8
			c1.3,0,2,0.2,2.3,0.3c0.2,0.1,0.3,0,0.4-0.1l0.2-0.2c0.1-0.1,0.2-0.1,0.3-0.1c0.1,0,0.2,0.2,0.2,0.3l0.3,2.9c0,0.1,0,0.1-0.1,0.1
			l-0.4,0.1c-0.1,0-0.2,0-0.2-0.1c-0.2-0.5-0.5-1.2-1.1-1.8c-0.4-0.5-1-0.7-1.7-0.7c-1.3,0-1.9,1.1-1.9,1.6c0,0.6,0,1.2,0.5,1.6
			c0.5,0.5,1.5,0.9,2.3,1.1c0.8,0.2,1.5,0.7,2.2,1.3c0.7,0.6,1,1.4,1,2.6c0,2.1-1.5,3.8-3.8,3.8c-1.6,0-2.4-0.3-3.1-0.7
			c-0.2-0.1-0.3-0.2-0.4-0.2c-0.1,0-0.2,0.1-0.3,0.3c-0.1,0.2-0.2,0.2-0.3,0.2c-0.2,0-0.3-0.1-0.2-0.3l0.3-3.3
			c0-0.1,0.1-0.1,0.1-0.1L-494.1,1144z"/>
		<path fill="#C5B06C" d="M-478.9,1147c-1.2-0.7-2.6-2.6-2.6-5.1c0-1,0.3-2.7,1.6-4.3c1.5-1.8,3.5-2.2,5.1-2.2
			c1.5,0,2.8,0.2,4.3,1.4c1.3,1,2.4,2.8,2.4,5.1c0,1.3-0.4,2.6-1.3,3.8c-1.1,1.4-2.6,2.4-5.4,2.4
			C-476,1148.1-477.6,1147.8-478.9,1147z M-470.9,1142c0-3.8-2.5-5.8-4-5.8c-0.3,0-1.2-0.1-2.3,0.9c-1,1-1.6,2.8-1.6,4.2
			c0,4.4,2.6,6,4,6C-471.5,1147.3-470.9,1143.5-470.9,1142z"/>
		<path fill="#C5B06C" d="M-459,1142.5c0,0.3,0,4,0.1,4.7h1c0.8,0,1.6,0,2.6-0.1s2.1-2.2,2.4-2.8c0.1-0.1,0.1-0.2,0.2-0.1l0.3,0.1
			c0.1,0,0.1,0.1,0,0.2c-0.1,0.1-0.8,3-0.9,3.4c-0.5,0-5.5-0.1-7.1-0.1c-1.7,0-2.4,0.1-2.6,0.1c-0.1,0-0.1,0-0.1-0.2v-0.4
			c0-0.1,0-0.1,0.1-0.1h0.5c0.6,0,0.8-0.2,0.8-0.4c0-0.3,0.1-4.6,0.1-5.7v-1c0-1.1,0-2.9-0.1-3.2c0-0.4-0.1-0.6-0.5-0.6h-0.6
			c-0.1,0-0.1-0.1-0.1-0.2v-0.4c0-0.1,0-0.1,0.1-0.1c0.2,0,0.8,0.1,2.4,0.1c2,0,2.8-0.1,2.9-0.1c0.1,0,0.2,0.1,0.2,0.2v0.4
			c0,0.1,0,0.1-0.2,0.1h-0.8c-0.5,0-0.6,0.2-0.6,0.6c0,0.2-0.1,2.8-0.1,4V1142.5z"/>
		<path fill="#C5B06C" d="M-447.5,1137.2c0-0.6-0.1-0.9-0.5-0.9h-0.8c-0.1,0-0.1,0-0.1-0.2v-0.4c0-0.1,0-0.1,0.2-0.1
			c0.2,0,1,0.1,2.9,0.1c1.5,0,2.4-0.1,2.6-0.1c0.1,0,0.2,0,0.2,0.1v0.4c0,0.1,0,0.1-0.1,0.1h-0.6c-0.6,0-0.9,0.3-0.9,0.7
			c0,0.2,0,1.4,0,2.2v1.1c0,0.9,0.1,3.1,0.1,3.6c0,0.8,0.2,1.6,0.6,2c0.6,0.7,1.4,1,2.2,1c0.6,0,1.6-0.3,2.1-0.8
			c0.7-0.6,1.1-1.6,1.1-2.8v-2.7c0-1.4-0.2-3.3-0.2-3.7c-0.1-0.4-0.3-0.8-0.6-0.8h-0.6c-0.1,0-0.1-0.1-0.1-0.1v-0.4
			c0-0.1,0-0.1,0.1-0.1c0.2,0,1,0.1,2.2,0.1c0.9,0,1.5-0.1,1.7-0.1s0.2,0.1,0.2,0.2v0.4c0,0.1,0,0.2-0.1,0.2h-0.5
			c-0.7,0-0.7,0.5-0.8,0.7c0,0.2,0,2.6,0,2.9c0,0.2,0,3.3-0.1,3.9c-0.1,1.4-0.6,2.5-1.5,3.3c-0.8,0.7-2,1.1-3.1,1.1
			c-0.8,0-1.9-0.1-2.7-0.4c-0.8-0.4-1.6-1.2-2-2.3c-0.3-0.7-0.4-1.9-0.4-4.1V1137.2z"/>
		<path fill="#C5B06C" d="M-427,1136.5h-0.6c-0.6,0-1.6,0-2.3,0.3c-0.4,0.3-1.2,1.3-1.6,1.9c-0.1,0.1-0.1,0.1-0.2,0.1l-0.4-0.1
			c-0.1,0-0.1-0.1-0.1-0.2c0.2-0.7,0.8-3,0.8-3.3c0.1-0.2,0.1-0.3,0.3-0.3s0.2,0.1,0.3,0.3c0.2,0.2,0.5,0.4,1.2,0.4
			c0.9,0.1,1.7,0.1,3.5,0.1h1c1.9,0,2.7-0.1,3.4-0.1c0.4,0,1.1-0.2,1.3-0.4c0.2-0.2,0.3-0.3,0.4-0.3s0.2,0.1,0.2,0.3
			c0.1,0.4,0.4,2.5,0.5,3.4c0,0.1,0,0.1-0.1,0.2l-0.4,0.1c-0.1,0-0.1,0-0.2-0.2c-0.4-0.6-1.1-1.5-1.5-1.9c-0.4-0.3-2-0.3-2.4-0.3
			h-0.6v4.7c0,0.2,0,5.1,0,5.3c0,0.4,0.2,0.7,0.6,0.7h0.8c0.2,0,0.2,0.1,0.2,0.2v0.4c0,0.1,0,0.1-0.2,0.1c-0.2,0-0.7-0.1-2.7-0.1
			c-1.9,0-2.6,0.1-2.8,0.1c-0.1,0-0.2-0.1-0.2-0.2v-0.3c0-0.1,0-0.2,0.1-0.2h0.9c0.3,0,0.6-0.2,0.6-0.5c0-0.4,0-5.6,0-6V1136.5z"/>
		<path fill="#C5B06C" d="M-413.2,1140.6c0-0.4-0.1-3.5-0.1-3.7c0-0.4-0.2-0.6-0.6-0.6h-0.8c-0.1,0-0.1,0-0.1-0.1v-0.5
			c0-0.1,0.1-0.1,0.1-0.1c0.2,0,1.1,0.1,2.8,0.1c1.8,0,2.3-0.1,2.6-0.1c0.1,0,0.1,0.1,0.1,0.2v0.4c0,0.1-0.1,0.1-0.1,0.1h-0.5
			c-0.4,0-0.7,0.1-0.7,0.4c0,0.2-0.1,4-0.1,4.2v1.3c0,0.2,0.1,4.1,0.1,4.3c0,0.5,0.3,0.6,0.6,0.6h0.7c0.1,0,0.1,0,0.1,0.1v0.5
			c0,0.1-0.1,0.1-0.2,0.1c-0.2,0-0.9-0.1-2.6-0.1c-1.8,0-2.6,0.1-2.8,0.1c-0.1,0-0.1,0-0.1-0.1v-0.5c0-0.1,0.1-0.1,0.1-0.1h0.5
			c0.3,0,0.7-0.1,0.8-0.5c0-0.3,0.1-4,0.1-4.9V1140.6z"/>
		<path fill="#C5B06C" d="M-401.3,1147c-1.2-0.7-2.6-2.6-2.6-5.1c0-1,0.3-2.7,1.6-4.3c1.5-1.8,3.5-2.2,5.1-2.2
			c1.5,0,2.8,0.2,4.3,1.4c1.3,1,2.4,2.8,2.4,5.1c0,1.3-0.4,2.6-1.3,3.8c-1.1,1.4-2.6,2.4-5.4,2.4
			C-398.4,1148.1-399.9,1147.8-401.3,1147z M-393.2,1142c0-3.8-2.5-5.8-4-5.8c-0.3,0-1.2-0.1-2.3,0.9c-1,1-1.6,2.8-1.6,4.2
			c0,4.4,2.6,6,4,6C-393.8,1147.3-393.2,1143.5-393.2,1142z"/>
		<path fill="#C5B06C" d="M-374.6,1142.8c0-1.5,0-2.4-0.1-3.2c0-0.7-0.1-2.4-0.2-2.6c-0.1-0.4-0.5-0.7-0.9-0.7h-0.6
			c-0.1,0-0.1-0.1-0.1-0.2v-0.4c0-0.1,0-0.1,0.2-0.1c0.2,0,0.8,0.1,2,0.1c1,0,1.5-0.1,1.7-0.1c0.2,0,0.2,0,0.2,0.1v0.4
			c0,0.1,0,0.2-0.1,0.2h-0.5c-0.3,0-0.5,0.3-0.5,0.9c-0.1,1.2-0.4,5-0.4,7.3v2.9c0,0.3,0,0.6-0.3,0.6c-0.3,0-0.5-0.1-0.7-0.3
			c-0.3-0.3-1.2-1.2-2.2-2.4c-1.3-1.5-2.7-3.1-3-3.5c-0.3-0.3-2.7-3.3-3.1-3.9h-0.1v3.5c0,1.4,0.2,3.5,0.2,4.2c0,1,0.3,1.5,1.1,1.5
			h0.4c0.1,0,0.1,0.1,0.1,0.2v0.4c0,0.1,0,0.1-0.1,0.1c-0.2,0-1.2-0.1-2-0.1c-0.5,0-1.7,0.1-1.9,0.1c-0.1,0-0.1,0-0.1-0.2v-0.4
			c0-0.1,0-0.1,0.1-0.1h0.6c0.4,0,0.7-0.6,0.8-1.7c0-0.3,0.2-3.1,0.2-5.6v-1.5c0-1-0.6-2-1.5-2l-0.4,0c-0.1,0-0.1-0.1-0.1-0.1v-0.5
			c0-0.1,0-0.1,0.1-0.1c0.1,0,0.2,0,0.6,0c0.3,0,0.9,0,1.8,0c0.6,0,1.1,0,1.3,0c0.2,0,0.4,0.1,0.5,0.2c0.1,0.1,3.5,4.3,4.1,4.9
			c0.2,0.3,2.8,3.4,3,3.7h0.1V1142.8z"/>
		<path fill="#C5B06C" d="M-366.6,1144c0.1,0,0.1,0,0.1,0.1c0,0.5,0.3,1.3,0.7,1.9c0.5,0.8,1.4,1.2,2.2,1.2c0.8,0,2.2-0.6,2.2-1.9
			c0-1.4-0.3-1.8-2.6-2.7c-0.5-0.2-1.6-0.7-2.5-1.5c-0.6-0.5-0.9-1.4-0.9-2.4c0-1,0.3-1.8,1.3-2.5c0.8-0.6,1.5-0.8,2.5-0.8
			c1.3,0,2,0.2,2.3,0.3c0.2,0.1,0.3,0,0.4-0.1l0.2-0.2c0.1-0.1,0.2-0.1,0.3-0.1c0.1,0,0.2,0.2,0.2,0.3l0.3,2.9c0,0.1,0,0.1-0.1,0.1
			l-0.4,0.1c-0.1,0-0.2,0-0.2-0.1c-0.2-0.5-0.5-1.2-1.1-1.8c-0.4-0.5-1-0.7-1.7-0.7c-1.3,0-1.9,1.1-1.9,1.6c0,0.6,0,1.2,0.5,1.6
			c0.5,0.5,1.5,0.9,2.3,1.1c0.8,0.2,1.5,0.7,2.2,1.3c0.7,0.6,1,1.4,1,2.6c0,2.1-1.5,3.8-3.8,3.8c-1.6,0-2.4-0.3-3.1-0.7
			c-0.2-0.1-0.3-0.2-0.4-0.2c-0.1,0-0.2,0.1-0.3,0.3c-0.1,0.2-0.2,0.2-0.3,0.2c-0.2,0-0.3-0.1-0.2-0.3l0.3-3.3
			c0-0.1,0.1-0.1,0.1-0.1L-366.6,1144z"/>
	</g>
</g>
</svg>
