<?xml version="1.0" encoding="utf-8"?>
<!-- Generator: Adobe Illustrator 18.1.1, SVG Export Plug-In . SVG Version: 6.00 Build 0)  -->
<svg version="1.1" id="Layer_1" xmlns="http://www.w3.org/2000/svg" xmlns:xlink="http://www.w3.org/1999/xlink" x="0px" y="0px"
	 width="390.6px" height="193px" viewBox="0 0 390.6 193" enable-background="new 0 0 390.6 193" xml:space="preserve">
<g>
	<g>
		<path fill="#FFFFFF" d="M8.6,145.9c0,2.1,0,8.1,0.1,8.7c0.1,1,0.5,1.4,1.5,1.4h2.8c0.3,0,0.4,0.1,0.4,0.3v1.1c0,0.2,0,0.4-0.4,0.4
			c-0.6,0-2-0.1-6.1-0.1c-3.9,0-5.6,0.1-6.1,0.1c-0.3,0-0.4-0.1-0.4-0.3v-1.1c0-0.2,0-0.3,0.3-0.3h1.9c1.5,0,1.8-0.2,1.9-1.4
			c0-0.4,0.2-7.3,0.2-12.4V137c0-2.9,0-7.7-0.1-8.2c-0.1-0.9-0.5-1-1.7-1H0.3c-0.2,0-0.3-0.1-0.3-0.4v-1.1c0-0.2,0-0.3,0.3-0.3
			c0.5,0,2.1,0.1,6.3,0.1c0.8,0,3.4-0.1,4.9-0.1c5,0,7.3,0.5,9.8,2.2c2.1,1.4,3.4,3.9,3.4,6.4c0,5.6-4.2,9-11.2,9
			c-1.6,0-3.4,0-4.8-0.2V145.9z M8.6,142c0.9,0.3,2.3,0.4,4.1,0.4c2.7,0,5.1-1.5,6.2-3c1-1.3,1.1-2.9,1.1-4.5c0-5.8-5.4-7.3-8-7.3
			c-0.8,0-2.6,0-3.4,0.3V142z"/>
	</g>
	<g>
		<path fill="#FFFFFF" d="M33.1,143.4c0.3,0,4.3-0.1,4.7-0.2c1.1-0.2,1.4-0.5,1.7-1.6c0.1-0.4,0.3-1.1,0.3-1.8
			c0-0.2,0.1-0.3,0.3-0.3l0.9,0c0.2,0,0.3,0.1,0.2,0.3c-0.1,0.6-0.1,3.7-0.1,4.2c0,1.3,0.1,3.1,0.2,3.8c0,0.2-0.1,0.3-0.2,0.3
			l-0.8,0.1c-0.2,0-0.3-0.1-0.3-0.3c-0.1-0.5-0.3-1.3-0.4-1.7c-0.2-0.8-0.6-1.3-1.6-1.4c-1.7-0.2-4.3-0.2-4.9-0.2v2.3
			c0,2,0.1,5.6,0.1,6.3c0,1.9,1,2.7,2.1,2.9c0.7,0.1,1.8,0.3,2.7,0.3c0.6,0,2.5,0,3.3-0.1c0.6-0.1,2.3-0.5,3.2-1.3
			c0.4-0.4,2.5-3,3-3.9c0.1-0.2,0.2-0.3,0.4-0.2l0.6,0.3c0.2,0.1,0.2,0.2,0.1,0.5l-2,5.4c-0.1,0.3-0.4,0.6-0.8,0.6
			c-0.2,0-1,0-3.2-0.1c-2.2,0-5.8,0-11.6,0c-1.4,0-2.4,0-3.1,0c-0.8,0-1.3,0.1-1.6,0.1c-0.2,0-0.3-0.1-0.3-0.3v-1
			c0-0.1,0.1-0.2,0.4-0.2h1.5c1.7,0,1.9-0.3,1.9-1.6v-8.8v-3.6c0-3.1-0.1-7.7-0.1-8.1c-0.1-1.2-0.5-1.4-1.9-1.4h-1.3
			c-0.2,0-0.3,0-0.3-0.3v-1c0-0.1,0.1-0.2,0.3-0.2c0.8,0,2.1,0.1,4.6,0.1h1.6c3.7,0,7.3,0,11,0c0.6,0,1.3-0.1,1.5-0.1
			s0.3,0.1,0.3,0.2c0.1,0.5,1.8,5.6,1.9,6c0,0.1,0,0.3-0.1,0.3l-0.6,0.3c-0.1,0.1-0.3,0-0.3-0.1c-0.1-0.1-2.8-3.7-3.7-4.2
			c-0.8-0.5-1.8-1-2.8-1l-6.6-0.1V143.4z"/>
		<path fill="#FFFFFF" d="M53.2,140.7c0-2.7,0-5.1,0-6.2c0-1.2-0.5-1.9-1.4-1.9h-1.5c-0.2,0-0.2-0.1-0.2-0.3v-0.9
			c0-0.2,0-0.3,0.2-0.3c0.3,0,1.5,0.1,4.6,0.1c2.1,0,5.5-0.1,6.2-0.1c3.1,0,5.5,0.9,6.9,2.3c1.2,1.2,1.9,2.8,1.9,4.2
			c0,4.6-2.1,6.4-6.8,7.4v0.1c0.9,0.3,1.4,1,1.7,1.4c0.4,0.5,3.1,4.3,3.4,4.7c0.2,0.4,2.6,3.7,3.3,4.3c0.8,0.6,1.6,0.6,2.7,0.6
			c0.3,0,0.3,0.1,0.3,0.3v0.8c0,0.2,0,0.3-0.3,0.3c-0.3,0-1.3-0.1-2.9-0.1c-1.1,0-2.4,0.1-3,0.1c-0.4-0.4-1.2-1.6-1.6-2.1
			c-0.3-0.4-2.3-4-2.5-4.3c-0.1-0.3-1.9-2.9-2.4-3.4c-1-1.1-1.9-2.1-4-2.1c-0.3,0-0.7,0-1.2,0.1v2.1c0,2.2,0,6.3,0.1,6.9
			c0.1,0.8,0.4,1.4,0.9,1.4h2.3c0.3,0,0.3,0.1,0.3,0.3v0.8c0,0.3,0,0.3-0.4,0.3c-0.4,0-1.3-0.1-4.8-0.1c-3.4,0-4.2,0.1-4.6,0.1
			c-0.3,0-0.3-0.1-0.3-0.3v-0.9c0-0.2,0-0.3,0.2-0.3h1.5c0.8,0,1.4-0.3,1.4-1.3c0.1-3.7,0.1-7.1,0.1-10.7V140.7z M56.5,144.4
			c0.6,0.1,1,0.1,1.7,0.1c6.7,0,8-4.6,8-6.2c0-1.7-0.8-3.3-1.9-4.2c-1.4-1.1-3.1-1.7-6.1-1.7c-0.4,0-0.9,0.1-1.3,0.3
			c-0.3,0.2-0.4,0.6-0.4,1.2V144.4z"/>
		<path fill="#FFFFFF" d="M81.4,143.4c0.3,0,4.3-0.1,4.7-0.2c1.1-0.2,1.4-0.5,1.7-1.6c0.1-0.4,0.3-1.1,0.3-1.8
			c0-0.2,0.1-0.3,0.3-0.3l0.9,0c0.2,0,0.3,0.1,0.2,0.3c-0.1,0.6-0.1,3.7-0.1,4.2c0,1.3,0.1,3.1,0.2,3.8c0,0.2-0.1,0.3-0.2,0.3
			l-0.8,0.1c-0.2,0-0.3-0.1-0.3-0.3c-0.1-0.5-0.3-1.3-0.4-1.7c-0.2-0.8-0.6-1.3-1.6-1.4c-1.7-0.2-4.3-0.2-4.9-0.2v2.3
			c0,2,0.1,5.6,0.1,6.3c0,1.9,1,2.7,2.1,2.9c0.7,0.1,1.8,0.3,2.7,0.3c0.6,0,2.5,0,3.3-0.1c0.6-0.1,2.3-0.5,3.2-1.3
			c0.4-0.4,2.5-3,3-3.9c0.1-0.2,0.2-0.3,0.4-0.2l0.6,0.3c0.2,0.1,0.2,0.2,0.1,0.5l-2,5.4c-0.1,0.3-0.4,0.6-0.8,0.6
			c-0.2,0-1,0-3.2-0.1c-2.2,0-5.8,0-11.6,0c-1.4,0-2.4,0-3.1,0c-0.8,0-1.3,0.1-1.6,0.1c-0.2,0-0.3-0.1-0.3-0.3v-1
			c0-0.1,0.1-0.2,0.4-0.2h1.5c1.7,0,1.9-0.3,1.9-1.6v-8.8v-3.6c0-3.1-0.1-7.7-0.1-8.1c-0.1-1.2-0.5-1.4-1.9-1.4h-1.3
			c-0.2,0-0.3,0-0.3-0.3v-1c0-0.1,0.1-0.2,0.3-0.2c0.8,0,2.1,0.1,4.6,0.1h1.6c3.7,0,7.3,0,11,0c0.6,0,1.3-0.1,1.5-0.1
			s0.3,0.1,0.3,0.2c0.1,0.5,1.8,5.6,1.9,6c0,0.1,0,0.3-0.1,0.3l-0.6,0.3c-0.1,0.1-0.3,0-0.3-0.1c-0.1-0.1-2.8-3.7-3.7-4.2
			c-0.8-0.5-1.8-1-2.8-1l-6.6-0.1V143.4z"/>
		<path fill="#FFFFFF" d="M119.9,149.4c0-1.3-0.4-1.7-1.5-1.7h-1.6c-0.2,0-0.3-0.1-0.3-0.2v-0.9c0-0.2,0-0.3,0.2-0.3
			c0.5,0,2.2,0.1,4.7,0.1c2.7,0,3.8-0.1,4.4-0.1c0.3,0,0.3,0.1,0.3,0.3v0.9c0,0.1,0,0.3-0.3,0.3h-1.4c-0.7,0-1.1,0.3-1.1,1.4v4.9
			c0,0.5,0.1,0.9,0.1,1.2s-0.2,0.4-0.6,0.6c-3,1.5-6,2.4-10.1,2.4c-3.3,0-7.8-1.2-10.4-4.2c-2.3-2.6-3.4-5.7-3.4-10.2
			c0-3.4,1.4-7,4.2-9.4c2.6-2.3,6-3.5,10.4-3.5c3.2,0,6,1.2,7.3,2.1c0.4,0.3,0.6,0.3,0.9,0l0.6-0.7c0.1-0.1,0.3-0.3,0.5-0.3
			c0.3,0,0.3,0.2,0.3,0.4l0.1,7.1c0,0.2,0,0.3-0.2,0.3l-0.7,0.1c-0.1,0-0.3-0.1-0.3-0.3c-0.3-1-0.9-2.8-2.2-4.4
			c-1.1-1.4-3.4-3-6.7-3c-2.6,0-4.8,0.6-7.1,3c-2,2.1-3.3,5.2-3.3,8.5c0,4.4,1.2,8.2,3.5,10.4c1.9,1.8,4.1,2.6,6.5,2.6
			c3,0,4.8-0.5,6.1-1.3c0.9-0.5,1-1.3,1-3.3V149.4z"/>
		<path fill="#FFFFFF" d="M131.7,140.7c0-2.7,0-5.1,0-6.2c0-1.2-0.5-1.9-1.4-1.9h-1.5c-0.2,0-0.2-0.1-0.2-0.3v-0.9
			c0-0.2,0-0.3,0.2-0.3c0.3,0,1.5,0.1,4.6,0.1c2.1,0,5.5-0.1,6.2-0.1c3.1,0,5.5,0.9,6.9,2.3c1.2,1.2,1.9,2.8,1.9,4.2
			c0,4.6-2.1,6.4-6.8,7.4v0.1c0.9,0.3,1.4,1,1.7,1.4c0.4,0.5,3.1,4.3,3.4,4.7c0.2,0.4,2.6,3.7,3.3,4.3c0.8,0.6,1.6,0.6,2.7,0.6
			c0.3,0,0.3,0.1,0.3,0.3v0.8c0,0.2,0,0.3-0.3,0.3c-0.3,0-1.3-0.1-2.9-0.1c-1.1,0-2.4,0.1-3,0.1c-0.4-0.4-1.2-1.6-1.6-2.1
			c-0.3-0.4-2.3-4-2.5-4.3c-0.1-0.3-1.9-2.9-2.4-3.4c-1-1.1-1.9-2.1-4-2.1c-0.3,0-0.7,0-1.2,0.1v2.1c0,2.2,0,6.3,0.1,6.9
			c0.1,0.8,0.4,1.4,0.9,1.4h2.3c0.3,0,0.3,0.1,0.3,0.3v0.8c0,0.3,0,0.3-0.4,0.3c-0.4,0-1.3-0.1-4.8-0.1c-3.4,0-4.2,0.1-4.6,0.1
			c-0.3,0-0.3-0.1-0.3-0.3v-0.9c0-0.2,0-0.3,0.2-0.3h1.5c0.8,0,1.4-0.3,1.4-1.3c0.1-3.7,0.1-7.1,0.1-10.7V140.7z M135,144.4
			c0.6,0.1,1,0.1,1.7,0.1c6.7,0,8-4.6,8-6.2c0-1.7-0.8-3.3-1.9-4.2c-1.4-1.1-3.1-1.7-6.1-1.7c-0.4,0-0.9,0.1-1.3,0.3
			c-0.3,0.2-0.4,0.6-0.4,1.2V144.4z"/>
		<path fill="#FFFFFF" d="M156.3,142c0-0.9-0.1-7.5-0.1-8.1c-0.1-0.9-0.4-1.3-1.9-1.3h-2.1c-0.2,0-0.3-0.1-0.3-0.2v-1
			c0-0.1,0.1-0.2,0.3-0.2c0.4,0,2.3,0.1,5.8,0.1c3.3,0,4.5-0.1,5-0.1c0.2,0,0.3,0.1,0.3,0.3v0.9c0,0.2-0.1,0.3-0.3,0.3h-1.7
			c-0.7,0-1.3,0.3-1.3,1c0,0.4-0.1,8.5-0.1,9v2.8c0,0.4,0.1,8.9,0.1,9.3c0,1.1,0.6,1.3,1.7,1.3h1.5c0.2,0,0.3,0.1,0.3,0.3v1
			c0,0.1-0.1,0.2-0.3,0.2c-0.4,0-1.9-0.1-5.1-0.1c-3.5,0-5.1,0.1-5.5,0.1c-0.2,0-0.3-0.1-0.3-0.2v-1c0-0.1,0.1-0.2,0.3-0.2h2.1
			c0.7,0,1.5-0.1,1.7-1.1c0.1-0.6,0.2-8.5,0.2-10.5V142z"/>
		<path fill="#FFFFFF" d="M169.3,136.2c0-2.2-1.1-3.4-2.4-3.4l-1.5,0c-0.2,0-0.2-0.1-0.2-0.3v-1c0-0.1,0-0.2,0.2-0.2s0.5,0,1,0
			c0.6,0,1.4,0.1,2.6,0.1c1.3,0,2-0.1,2.5-0.1c0.5,0,0.8,0.1,1.1,0.5c0.2,0.2,7.4,9.5,7.8,10.1c0.4,0.5,6.7,8.2,7.5,9.4h0.1v-4.4
			c0-3.3,0-5.1-0.1-7c0-1.4-0.2-5.1-0.4-5.7c-0.3-0.9-1-1.4-2-1.4h-1.2c-0.1,0-0.2-0.1-0.2-0.3v-1c0-0.1,0.1-0.2,0.2-0.2
			c0.5,0,1.7,0.1,4.1,0.1c2.2,0,3.1-0.1,3.6-0.1c0.3,0,0.3,0.1,0.3,0.3v0.9c0,0.1-0.1,0.3-0.2,0.3h-1c-1,0-1.4,0.6-1.4,2
			c-0.1,2.5-0.1,6.1-0.1,8.5v13.8c0,0.5,0,0.9-0.2,0.9c-0.4,0-0.8-0.4-0.9-0.6c0-0.1-2.2-2.8-4.5-5.7c-2.6-3.2-5.3-6.6-5.5-6.8
			c-0.4-0.4-7.2-8.9-7.4-9.2h-0.2v8.2c0,3.4,0.3,9.5,0.4,10.2c0.1,1.4,0.4,2.1,1.4,2.1h1.1c0.3,0,0.3,0.1,0.3,0.3v0.8
			c0,0.2,0,0.3-0.3,0.3c-0.4,0-2.6-0.1-3.6-0.1c-0.8,0-3.3,0.1-3.7,0.1c-0.1,0-0.2-0.1-0.2-0.3v-1c0-0.1,0-0.2,0.2-0.2h1.3
			c1.1,0,1.5-0.4,1.7-2.3c0.1-0.7,0.1-4.9,0.1-11.5V136.2z"/>
		<path fill="#FFFFFF" d="M201.6,143.4c0.3,0,4.3-0.1,4.7-0.2c1.1-0.2,1.4-0.5,1.7-1.6c0.1-0.4,0.3-1.1,0.3-1.8
			c0-0.2,0.1-0.3,0.3-0.3l0.9,0c0.2,0,0.3,0.1,0.2,0.3c-0.1,0.6-0.1,3.7-0.1,4.2c0,1.3,0.1,3.1,0.2,3.8c0,0.2-0.1,0.3-0.2,0.3
			l-0.8,0.1c-0.2,0-0.3-0.1-0.3-0.3c-0.1-0.5-0.3-1.3-0.4-1.7c-0.2-0.8-0.6-1.3-1.6-1.4c-1.7-0.2-4.3-0.2-4.9-0.2v2.3
			c0,2,0.1,5.6,0.1,6.3c0,1.9,1,2.7,2.1,2.9c0.7,0.1,1.8,0.3,2.7,0.3c0.6,0,2.5,0,3.3-0.1c0.6-0.1,2.3-0.5,3.2-1.3
			c0.4-0.4,2.5-3,3-3.9c0.1-0.2,0.2-0.3,0.4-0.2l0.6,0.3c0.2,0.1,0.2,0.2,0.1,0.5l-2,5.4c-0.1,0.3-0.4,0.6-0.8,0.6
			c-0.2,0-1,0-3.2-0.1c-2.2,0-5.8,0-11.6,0c-1.4,0-2.4,0-3.1,0c-0.8,0-1.3,0.1-1.6,0.1c-0.2,0-0.3-0.1-0.3-0.3v-1
			c0-0.1,0.1-0.2,0.4-0.2h1.5c1.7,0,1.9-0.3,1.9-1.6v-8.8v-3.6c0-3.1-0.1-7.7-0.1-8.1c-0.1-1.2-0.5-1.4-1.9-1.4h-1.3
			c-0.2,0-0.3,0-0.3-0.3v-1c0-0.1,0.1-0.2,0.3-0.2c0.8,0,2.1,0.1,4.6,0.1h1.6c3.7,0,7.3,0,11,0c0.6,0,1.3-0.1,1.5-0.1
			c0.2,0,0.3,0.1,0.3,0.2c0.1,0.5,1.8,5.6,1.9,6c0,0.1,0,0.3-0.1,0.3L215,138c-0.1,0.1-0.3,0-0.3-0.1c-0.1-0.1-2.8-3.7-3.7-4.2
			c-0.8-0.5-1.8-1-2.8-1l-6.6-0.1V143.4z"/>
	</g>
	<g>
		<path fill="#FFFFFF" d="M247.5,151.2c-2.2,2.6-5.3,7-11,7c-4.2,0-9.3-2.7-9.3-7.8c0-3.2,1.8-5.8,3.6-7.5c1.5-1.5,3.3-2.6,5.1-3.6
			c-3-1.8-4.6-3.9-4.6-5.5c0-3.5,4.5-7.5,7.1-7.5c3.3,0,6.3,3.2,6.2,6.1c-0.1,2.3-3,5.1-4.9,6.1c3.1,1.6,7.1,5.4,9.3,8.6
			c1.4-1.8,4.2-5.9,4.4-7.2c0.1-0.7-0.4-1.4-1.4-1.4h-0.8c-0.3,0-0.3-0.1-0.3-0.3v-1c0-0.1,0-0.2,0.3-0.2c0.4,0,2.8,0.1,4.3,0.1
			c1.6,0,4.3-0.1,4.5-0.1s0.3,0.1,0.3,0.3v0.9c0,0.2,0,0.3-0.3,0.3h-0.7c-2.2,0-2.6,0.2-3.4,1.3c-0.3,0.5-4.9,7.2-6.1,8.4
			c0.7,0.8,2.7,3.1,3.4,3.7c1.1,1.1,3.1,3.3,6,3.3c2.7,0,4.7-3.1,4.9-3.4c0.1-0.1,0.2-0.2,0.4,0l0.7,0.4c0.1,0,0.1,0.2,0,0.4
			c-0.7,1.5-3.1,5.6-8.2,5.6C252.2,158.2,249.4,153.6,247.5,151.2z M246.5,150.2c-2-2.9-5.6-7.5-9.7-9.9c-3.2,1.8-6,5-6,8.6
			c0.1,3.7,3.9,6.6,7.3,6.6C242.5,155.6,245.4,151.5,246.5,150.2z M234.4,133c0,1.6,2.4,3.6,4.5,4.9c1.1-0.8,3.2-2.2,3.2-5.6
			c0-1.5-1.4-4.4-3.6-4.4C236.3,127.9,234.4,130.5,234.4,133z"/>
	</g>
	<g>
		<path fill="#FFFFFF" d="M267,138.4c0-1.6-0.1-7-0.1-7.8c-0.1-2.6-0.8-2.6-2.9-2.6h-1.4c-0.3,0-0.4-0.1-0.4-0.3v-1.1
			c0-0.2,0.1-0.3,0.4-0.3c0.7,0,2.7,0.1,5.9,0.1c1.4,0,4.1-0.1,5.6-0.1c3.4,0,6.3,0.3,7.8,1.2c2.5,1.4,3.4,3.4,3.4,6
			c0,4.4-1.9,5.5-5.4,7.3l0.1,0.1c4.3,1.4,7.1,4.1,7.1,8.7c0,2.2-1.4,5.3-3.4,6.6c-1.9,1.1-4.4,1.6-8.4,1.6c-3,0-4.8-0.1-6.6-0.1
			c-2.2,0-4.8,0.1-5.6,0.1c-0.5,0-0.6-0.1-0.6-0.3v-1.1c0-0.2,0.1-0.3,0.4-0.3h2.1c1.4,0,1.6-0.5,1.8-1.9c0.1-1,0.2-6.8,0.2-10.5
			V138.4z M270.9,140.1c0.8,0.1,1.6,0.1,2.3,0.1c2.5,0,4.5-0.4,5.6-1.1c1.8-1.4,2.5-3.4,2.5-5.3c0-1.7-0.5-3.4-2.2-4.6
			c-1.6-1.1-3.8-1.5-6-1.5c-0.6,0-1.1,0-1.5,0s-0.6,0.4-0.6,0.8c0,0.9-0.1,4.7-0.1,8.4V140.1z M270.9,144.3v6.1c0,4.1,1,5.9,4.6,5.9
			c3.7,0,7.1-1.8,7.1-7c0-3.6-1.8-5.9-4.4-6.9c-1.8-0.7-3.9-0.8-5.9-0.8h-1.4V144.3z"/>
	</g>
	<g>
		<path fill="#FFFFFF" d="M294.1,141c0-2.4-0.1-6.3-0.1-7c-0.1-1-0.3-1.3-1.4-1.3h-1.7c-0.2,0-0.3-0.2-0.3-0.4v-0.8
			c0-0.2,0-0.3,0.3-0.3c0.4,0,1.7,0.1,4.8,0.1c3.6,0,5.1-0.1,5.5-0.1c0.3,0,0.3,0.1,0.3,0.3v0.9c0,0.2-0.1,0.3-0.4,0.3h-2.2
			c-1.1,0-1.3,0.4-1.3,1.4c0,0.5-0.1,6.1-0.1,8.7v3.2c0,0.6,0,8.6,0.1,10.1c0.8,0.1,8.1,0.1,9.3,0c2.2-0.3,4.4-4.8,4.9-6.2
			c0.1-0.1,0.1-0.2,0.3-0.1l0.6,0.2c0.1,0.1,0.1,0.1,0.1,0.3c-0.1,0.3-1.6,6.4-1.8,7.4c-0.5,0-3.4-0.1-6.7-0.1c-3.3,0-6.9,0-8.9,0
			c-1.4,0-2.5,0-3.3,0c-0.7,0-1.2,0.1-1.4,0.1s-0.3-0.1-0.3-0.3v-0.9c0-0.2,0-0.3,0.3-0.3h1.8c1.4,0,1.6-0.5,1.6-1
			c0-0.7,0.1-9.9,0.1-12.2V141z"/>
		<path fill="#FFFFFF" d="M320.3,147.3c-0.4,0.9-2.4,6.5-2.6,7.3c0,0.3-0.1,0.6-0.1,0.8c0,0.5,0.4,0.8,1.3,0.8h1.7
			c0.3,0,0.4,0.1,0.4,0.3v0.9c0,0.3-0.1,0.3-0.3,0.3c-0.5,0-2-0.1-4.2-0.1c-2.7,0-3.5,0.1-4,0.1c-0.2,0-0.3-0.1-0.3-0.3v-0.9
			c0-0.2,0.1-0.3,0.3-0.3h1.3c1.1,0,1.6-0.5,2.1-1.7c0.3-0.6,3-7.4,4-10.5c0.3-0.7,3.3-8.7,3.6-9.7c0.1-0.4,0.3-0.9,0-1.3
			c-0.1-0.1-0.3-0.3-0.3-0.5c0-0.1,0.1-0.3,0.3-0.3c1-0.2,2.7-1.3,3.1-1.9c0.2-0.2,0.3-0.3,0.5-0.3c0.2,0,0.3,0.2,0.4,0.6
			c0.7,2.3,3.6,10.6,4.3,13c0.9,2.9,3.3,9.8,3.8,10.8c0.6,1.2,1.6,1.7,2.5,1.7h1.2c0.2,0,0.3,0.1,0.3,0.3v0.9c0,0.2-0.1,0.3-0.4,0.3
			c-0.7,0-1.4-0.1-4.4-0.1c-3.1,0-4.4,0.1-5.2,0.1c-0.2,0-0.3-0.1-0.3-0.3v-0.9c0-0.2,0.1-0.3,0.3-0.3h0.9c1,0,1.4-0.4,1.1-1.4
			c-0.3-1.3-1.8-6.1-2.3-7.5H320.3z M328.9,145.9c-0.3-1.1-3.3-10.4-3.5-10.9c-0.1-0.3-0.2-0.5-0.3-0.5c-0.1,0-0.3,0.3-0.4,0.6
			c-0.2,0.5-3.7,10-4,10.9H328.9z"/>
		<path fill="#FFFFFF" d="M342.9,154.7c-2.7-2.5-4-6.8-4-10.4c0-3.4,1.1-7,3.8-9.8c1.9-2,5.2-3.7,9.2-3.7c3.4,0,6.1,1.3,7.5,2
			c0.5,0.3,0.7,0.3,0.7,0l0.3-1.1c0.1-0.2,0.1-0.2,0.5-0.2s0.4,0.1,0.4,0.6c0,0.7,0.7,6.1,0.9,7.2c0,0.2,0,0.3-0.1,0.4l-0.6,0.1
			c-0.2,0-0.3,0-0.4-0.3c-0.5-1.2-1.3-3-2.9-4.6c-1.6-1.6-3.5-2.8-6.4-2.8c-6.6,0-9.3,5.9-9.2,11.3c0,2.1,0.7,6.3,3.6,9.5
			c2.5,2.8,4.6,3.1,7.1,3.1c4.2,0,7.4-2.3,9.1-4.7c0.1-0.2,0.2-0.2,0.3-0.1l0.5,0.4c0.1,0.1,0.2,0.1,0.1,0.3
			c-2.2,3.2-5.8,6.2-11,6.2C347.9,158.1,345.1,156.7,342.9,154.7z"/>
		<path fill="#FFFFFF" d="M368.9,141.7c0-0.7-0.1-7.9-0.1-8.2c0-0.4-0.2-0.9-1.1-0.9h-1.3c-0.2,0-0.3-0.1-0.3-0.3v-1
			c0-0.1,0.1-0.2,0.3-0.2c0.4,0,1.6,0.1,4.3,0.1c2.5,0,3.7-0.1,4.2-0.1c0.2,0,0.3,0.1,0.3,0.2v1c0,0.2-0.1,0.3-0.3,0.3h-1.6
			c-0.7,0-1,0.3-1,1.1c0,0.6-0.1,6.3-0.1,8.1v1.9h0.7c0.6,0,1-0.1,1.5-0.5c0.8-0.6,7.7-9.3,8-9.8c0.3-0.5,0.1-0.9-0.3-0.9h-0.5
			c-0.1,0-0.2-0.1-0.2-0.3v-0.9c0-0.2,0.1-0.3,0.2-0.3c0.4,0,2,0.1,3.7,0.1c1.1,0,2.4-0.1,2.8-0.1c0.2,0,0.3,0.1,0.3,0.2v1
			c0,0.2-0.1,0.3-0.3,0.3h-0.8c-0.5,0-1.4,0.2-2,0.7c-1.4,1-7,7.5-8.6,9.6c0.3,0.4,9.6,11.9,9.9,12.3c0.6,0.8,1.7,0.9,2.6,0.9h1.3
			c0.2,0,0.3,0.1,0.3,0.3v0.9c0,0.2-0.1,0.3-0.3,0.3c-0.4,0-1.8-0.1-4.6-0.1c-3.1,0-4.5,0.1-5,0.1c-0.1,0-0.2-0.1-0.2-0.2v-1
			c0-0.1,0.1-0.2,0.2-0.2h0.6c0.7,0,0.8-0.6,0.6-1c-0.3-0.7-6.9-9.4-7.4-9.8c-0.6-0.5-1.1-0.6-1.6-0.6h-0.7v2.7
			c0,1.9,0.1,7.3,0.1,7.8c0,0.5,0.4,0.8,0.9,0.8h1.6c0.2,0,0.3,0.1,0.3,0.2v1c0,0.1,0,0.3-0.2,0.3c-0.4,0-1.6-0.1-4.2-0.1
			c-2.9,0-4.1,0.1-4.4,0.1c-0.2,0-0.3-0.1-0.3-0.3v-1c0-0.2,0.1-0.2,0.3-0.2h1.5c0.7,0,0.9-0.3,1-0.7c0-0.3,0.1-7,0.1-11.7V141.7z"
			/>
	</g>
	<g>
		<path fill="#C4AF6C" d="M47.6,187.6c-0.2,0.5-1.2,3.2-1.3,3.6c0,0.1-0.1,0.3-0.1,0.4c0,0.3,0.2,0.4,0.6,0.4h0.9
			c0.1,0,0.2,0,0.2,0.1v0.4c0,0.1-0.1,0.2-0.1,0.2c-0.3,0-1-0.1-2.1-0.1c-1.3,0-1.7,0.1-2,0.1c-0.1,0-0.1,0-0.1-0.1v-0.4
			c0-0.1,0.1-0.1,0.1-0.1h0.6c0.5,0,0.8-0.3,1.1-0.8c0.1-0.3,1.5-3.7,2-5.2c0.1-0.4,1.6-4.3,1.8-4.8c0.1-0.2,0.1-0.4,0-0.6
			c-0.1-0.1-0.1-0.2-0.1-0.2c0-0.1,0-0.1,0.2-0.2c0.5-0.1,1.3-0.7,1.5-0.9c0.1-0.1,0.1-0.2,0.2-0.2c0.1,0,0.1,0.1,0.2,0.3
			c0.3,1.2,1.8,5.2,2.1,6.4c0.4,1.4,1.6,4.8,1.9,5.3c0.3,0.6,0.8,0.8,1.2,0.8H57c0.1,0,0.1,0.1,0.1,0.1v0.5c0,0.1-0.1,0.1-0.2,0.1
			c-0.3,0-0.7-0.1-2.2-0.1c-1.5,0-2.2,0.1-2.6,0.1c-0.1,0-0.1-0.1-0.1-0.2v-0.4c0-0.1,0.1-0.1,0.2-0.1h0.5c0.5,0,0.7-0.2,0.5-0.7
			c-0.1-0.7-0.9-3-1.1-3.7H47.6z M51.9,186.9c-0.2-0.5-1.6-5.1-1.7-5.4c-0.1-0.1-0.1-0.3-0.1-0.3c-0.1,0-0.1,0.1-0.2,0.3
			c-0.1,0.2-1.8,4.9-2,5.4H51.9z"/>
		<path fill="#C4AF6C" d="M65.1,192c-0.2-0.2-0.3-0.2-0.4-0.2c-0.1,0-0.2,0.1-0.3,0.3c-0.1,0.2-0.2,0.2-0.3,0.2
			c-0.1,0-0.2-0.1-0.2-0.3c0.1-0.5,0.3-2.8,0.3-3.3c0-0.1,0.1-0.1,0.1-0.1l0.3,0c0.1,0,0.1,0,0.1,0.1c0,0.6,0.1,1.2,0.7,2.1
			c0.5,0.9,1.6,1.3,2.6,1.3c1.1,0,2.5-0.7,2.5-2.3c0-1.9-1.4-2.6-2.8-3.1c-0.6-0.2-1.9-0.7-2.7-1.5c-0.6-0.6-0.9-1.5-0.9-2.7
			c0-0.9,0.6-1.8,1.1-2.3c0.7-0.6,1.6-0.9,2.6-0.9c1,0,1.8,0.3,2.2,0.5c0.2,0.1,0.3,0.1,0.3,0l0.2-0.2c0.1-0.1,0.1-0.1,0.2-0.1
			c0.1,0,0.1,0.1,0.1,0.3c0,0.6,0.2,2.5,0.3,2.9c0,0.1,0,0.1-0.1,0.1l-0.2,0.1c-0.1,0-0.1,0-0.1-0.1c-0.1-0.5-0.4-1.2-1.1-2
			c-0.5-0.5-1.1-0.8-2-0.8c-1.6,0-2.2,1.2-2.2,2.1c0,0.5,0.1,1.1,0.6,1.6c0.5,0.5,1.6,0.9,2.1,1.1c1.3,0.4,2.3,0.7,2.9,1.5
			c0.5,0.6,0.8,1.3,0.8,2.5c0,2.2-1.3,4-3.7,4C66.7,193,65.8,192.6,65.1,192z"/>
		<path fill="#C4AF6C" d="M80.5,192c-0.2-0.2-0.3-0.2-0.4-0.2c-0.1,0-0.2,0.1-0.3,0.3c-0.1,0.2-0.2,0.2-0.3,0.2
			c-0.1,0-0.2-0.1-0.2-0.3c0.1-0.5,0.3-2.8,0.3-3.3c0-0.1,0.1-0.1,0.1-0.1l0.3,0c0.1,0,0.1,0,0.1,0.1c0,0.6,0.1,1.2,0.7,2.1
			c0.5,0.9,1.6,1.3,2.6,1.3c1.1,0,2.5-0.7,2.5-2.3c0-1.9-1.4-2.6-2.8-3.1c-0.6-0.2-1.9-0.7-2.7-1.5c-0.6-0.6-0.9-1.5-0.9-2.7
			c0-0.9,0.6-1.8,1.1-2.3c0.7-0.6,1.6-0.9,2.6-0.9c1,0,1.8,0.3,2.2,0.5c0.2,0.1,0.3,0.1,0.3,0l0.2-0.2c0.1-0.1,0.1-0.1,0.2-0.1
			c0.1,0,0.1,0.1,0.1,0.3c0,0.6,0.2,2.5,0.3,2.9c0,0.1,0,0.1-0.1,0.1l-0.2,0.1c-0.1,0-0.1,0-0.1-0.1c-0.1-0.5-0.4-1.2-1.1-2
			c-0.5-0.5-1.1-0.8-2-0.8c-1.6,0-2.2,1.2-2.2,2.1c0,0.5,0.1,1.1,0.6,1.6c0.5,0.5,1.6,0.9,2.1,1.1c1.3,0.4,2.3,0.7,2.9,1.5
			c0.5,0.6,0.8,1.3,0.8,2.5c0,2.2-1.3,4-3.7,4C82.2,193,81.3,192.6,80.5,192z"/>
		<path fill="#C4AF6C" d="M97.9,185.7c0.1,0,2.1-0.1,2.3-0.1c0.5-0.1,0.7-0.2,0.8-0.8c0.1-0.2,0.1-0.5,0.1-0.9
			c0-0.1,0.1-0.1,0.1-0.1l0.5,0c0.1,0,0.1,0.1,0.1,0.1c-0.1,0.3-0.1,1.8-0.1,2.1c0,0.6,0.1,1.5,0.1,1.9c0,0.1,0,0.1-0.1,0.1
			l-0.4,0.1c-0.1,0-0.1,0-0.1-0.2c0-0.2-0.1-0.7-0.2-0.9c-0.1-0.4-0.3-0.7-0.8-0.7c-0.9-0.1-2.1-0.1-2.4-0.1v1.1c0,1,0,2.8,0,3.1
			c0,0.9,0.5,1.3,1,1.4c0.4,0.1,0.9,0.1,1.4,0.1c0.3,0,1.2,0,1.6-0.1c0.3,0,1.1-0.2,1.6-0.6c0.2-0.2,1.2-1.5,1.5-1.9
			c0.1-0.1,0.1-0.2,0.2-0.1l0.3,0.2c0.1,0.1,0.1,0.1,0,0.3l-1,2.7c-0.1,0.2-0.2,0.3-0.4,0.3c-0.1,0-0.5,0-1.6,0c-1.1,0-2.9,0-5.7,0
			c-0.7,0-1.2,0-1.6,0c-0.4,0-0.6,0-0.8,0c-0.1,0-0.2,0-0.2-0.1v-0.5c0-0.1,0.1-0.1,0.2-0.1h0.7c0.8,0,0.9-0.1,0.9-0.8v-4.3v-1.8
			c0-1.5,0-3.8-0.1-4c-0.1-0.6-0.3-0.7-0.9-0.7h-0.7c-0.1,0-0.1,0-0.1-0.1v-0.5c0-0.1,0-0.1,0.1-0.1c0.4,0,1,0.1,2.2,0.1h0.8
			c1.8,0,3.6,0,5.4,0c0.3,0,0.6,0,0.7,0c0.1,0,0.1,0,0.1,0.1c0.1,0.3,0.9,2.8,0.9,2.9c0,0.1,0,0.1-0.1,0.2l-0.3,0.1
			c-0.1,0-0.1,0-0.1-0.1c0-0.1-1.4-1.8-1.8-2.1c-0.4-0.3-0.9-0.5-1.4-0.5l-3.2-0.1V185.7z"/>
		<path fill="#C4AF6C" d="M117,180.4h-0.5c-0.6,0-2.2,0-2.9,0.2c-0.8,0.3-1.4,1.5-1.6,2.1c0,0.1-0.1,0.1-0.2,0.1l-0.3-0.1
			c-0.1,0-0.1,0-0.1-0.1c0.2-0.7,0.8-3,0.9-3.2c0-0.2,0.1-0.3,0.2-0.3c0.1,0,0.1,0,0.2,0.1l0.2,0.2c0.3,0.2,0.5,0.3,1,0.3
			c1,0,1.7,0.1,3.4,0.1h0.9c2,0,2.8-0.1,3.7-0.1c0.4,0,0.6-0.1,0.9-0.3l0.3-0.2c0.1-0.1,0.1-0.1,0.2-0.1c0.1,0,0.1,0.1,0.2,0.3
			c0,0.2,0.4,2.5,0.5,3.3c0,0.1,0,0.1-0.1,0.1l-0.3,0.1c-0.1,0-0.1,0-0.1-0.1c-0.1-0.3-0.7-1.8-1.3-2c-0.5-0.3-2.3-0.3-3.2-0.3h-0.5
			v5.2c0,0.3,0,5.4,0,5.7c0,0.5,0.2,0.7,0.6,0.7h1.1c0.2,0,0.2,0.1,0.2,0.2v0.4c0,0.1,0,0.1-0.2,0.1c-0.2,0-0.8-0.1-2.6-0.1
			c-1.8,0-2.5,0.1-2.8,0.1c-0.1,0-0.2-0.1-0.2-0.2v-0.3c0-0.1,0-0.2,0.1-0.2h1.2c0.4,0,0.6-0.2,0.6-0.4c0.1-0.5,0.1-6.1,0.1-6.5
			V180.4z"/>
		<path fill="#C4AF6C" d="M148.8,189.8c0.3-0.3,2.1-4.6,2.2-4.9c0.1-0.3,2.1-4.5,2.2-4.9c0-0.2,0.2-0.2,0.4-0.2c2.4,0,3-0.1,3.2-0.1
			c0.1,0,0.1,0.1,0.1,0.1v0.4c0,0.1,0,0.2-0.1,0.2h-0.8c-0.5,0-0.6,0.3-0.6,0.7c0,0.5-0.1,3.1-0.1,4.4v1.3c0,0.9,0.1,3.9,0.1,4.2
			c0,0.7,0.2,1,0.6,1h1.1c0.1,0,0.1,0.1,0.1,0.1v0.4c0,0.1,0,0.2-0.2,0.2c-0.2,0-0.5-0.1-2.6-0.1c-1.7,0-2.4,0.1-2.6,0.1
			c-0.1,0-0.1-0.1-0.1-0.2v-0.4c0-0.1,0-0.1,0.1-0.1h1.2c0.3,0,0.5-0.1,0.5-0.7c0-0.2,0-3.4,0-4.7v-1.2c0-1.2,0-4.5-0.1-4.6h0
			c-0.2,0.2-2.8,6-2.9,6.2c-0.1,0.2-2.1,4.9-2.2,5s-0.2,0.4-0.4,0.4c-0.1,0-0.2-0.1-0.3-0.3c-0.1-0.1-2.4-5.9-2.5-6.1
			c-0.3-0.8-2-4.9-2.3-5.1c-0.1,0.3-0.1,4.9-0.1,5.1c0,0.2,0,4.1,0,4.7c0.1,1,0.3,1.3,0.8,1.3h0.9c0.1,0,0.1,0.1,0.1,0.1v0.5
			c0,0.1,0,0.1-0.2,0.1c-0.2,0-0.7-0.1-2.2-0.1c-1.6,0-2.2,0.1-2.4,0.1c-0.1,0-0.2,0-0.2-0.2v-0.4c0-0.1,0-0.1,0.1-0.1h1
			c0.7,0,0.9-0.5,1-1.1c0.2-1.3,0.3-6,0.3-6.3c0-0.3,0-3,0-3.5c0-0.4,0-0.7-0.7-0.7h-1.1c-0.1,0-0.1-0.1-0.1-0.1v-0.5
			c0-0.1,0-0.1,0.1-0.1c0.2,0,0.7,0.1,2.2,0.1c0.9,0,1.3-0.1,1.6-0.1c0.3,0,0.4,0.1,0.5,0.3L148.8,189.8z"/>
		<path fill="#C4AF6C" d="M167.3,187.6c-0.2,0.5-1.2,3.2-1.3,3.6c0,0.1-0.1,0.3-0.1,0.4c0,0.3,0.2,0.4,0.6,0.4h0.9
			c0.1,0,0.2,0,0.2,0.1v0.4c0,0.1-0.1,0.2-0.1,0.2c-0.3,0-1-0.1-2.1-0.1c-1.3,0-1.7,0.1-2,0.1c-0.1,0-0.1,0-0.1-0.1v-0.4
			c0-0.1,0.1-0.1,0.1-0.1h0.6c0.5,0,0.8-0.3,1.1-0.8c0.1-0.3,1.5-3.7,2-5.2c0.1-0.4,1.6-4.3,1.8-4.8c0.1-0.2,0.1-0.4,0-0.6
			c-0.1-0.1-0.1-0.2-0.1-0.2c0-0.1,0-0.1,0.2-0.2c0.5-0.1,1.3-0.7,1.5-0.9c0.1-0.1,0.1-0.2,0.2-0.2c0.1,0,0.1,0.1,0.2,0.3
			c0.3,1.2,1.8,5.2,2.1,6.4c0.4,1.4,1.6,4.8,1.9,5.3c0.3,0.6,0.8,0.8,1.2,0.8h0.6c0.1,0,0.1,0.1,0.1,0.1v0.5c0,0.1-0.1,0.1-0.2,0.1
			c-0.3,0-0.7-0.1-2.2-0.1c-1.5,0-2.2,0.1-2.6,0.1c-0.1,0-0.1-0.1-0.1-0.2v-0.4c0-0.1,0.1-0.1,0.2-0.1h0.5c0.5,0,0.7-0.2,0.5-0.7
			c-0.1-0.7-0.9-3-1.1-3.7H167.3z M171.6,186.9c-0.2-0.5-1.6-5.1-1.7-5.4c-0.1-0.1-0.1-0.3-0.1-0.3c-0.1,0-0.1,0.1-0.2,0.3
			c-0.1,0.2-1.8,4.9-2,5.4H171.6z"/>
		<path fill="#C4AF6C" d="M184.8,182.1c0-1.1-0.5-1.7-1.2-1.7l-0.7,0c-0.1,0-0.1-0.1-0.1-0.1v-0.5c0-0.1,0-0.1,0.1-0.1
			c0.1,0,0.2,0,0.5,0c0.3,0,0.7,0,1.3,0c0.6,0,1,0,1.2,0c0.2,0,0.4,0.1,0.5,0.2c0.1,0.1,3.6,4.7,3.8,5c0.2,0.3,3.3,4,3.7,4.6h0.1
			v-2.2c0-1.6,0-2.5-0.1-3.4c0-0.7-0.1-2.5-0.2-2.8c-0.1-0.5-0.5-0.7-1-0.7h-0.6c-0.1,0-0.1,0-0.1-0.1v-0.5c0-0.1,0-0.1,0.1-0.1
			c0.3,0,0.8,0.1,2,0.1c1.1,0,1.5-0.1,1.8-0.1c0.1,0,0.1,0.1,0.1,0.1v0.5c0,0.1,0,0.1-0.1,0.1h-0.5c-0.5,0-0.7,0.3-0.7,1
			c-0.1,1.2-0.1,3-0.1,4.2v6.8c0,0.3,0,0.4-0.1,0.4c-0.2,0-0.4-0.2-0.4-0.3c0,0-1.1-1.4-2.2-2.8c-1.3-1.6-2.6-3.3-2.7-3.4
			c-0.2-0.2-3.6-4.4-3.7-4.5h-0.1v4.1c0,1.7,0.1,4.7,0.2,5c0.1,0.7,0.2,1.1,0.7,1.1h0.5c0.1,0,0.1,0.1,0.1,0.2v0.4
			c0,0.1,0,0.1-0.1,0.1c-0.2,0-1.3-0.1-1.8-0.1c-0.4,0-1.6,0.1-1.8,0.1c-0.1,0-0.1,0-0.1-0.1v-0.5c0-0.1,0-0.1,0.1-0.1h0.6
			c0.5,0,0.7-0.2,0.8-1.1c0-0.3,0.1-2.4,0.1-5.7V182.1z"/>
		<path fill="#C4AF6C" d="M206.2,187.6c-0.2,0.5-1.2,3.2-1.3,3.6c0,0.1-0.1,0.3-0.1,0.4c0,0.3,0.2,0.4,0.6,0.4h0.9
			c0.1,0,0.2,0,0.2,0.1v0.4c0,0.1-0.1,0.2-0.1,0.2c-0.3,0-1-0.1-2.1-0.1c-1.3,0-1.7,0.1-2,0.1c-0.1,0-0.1,0-0.1-0.1v-0.4
			c0-0.1,0.1-0.1,0.1-0.1h0.6c0.5,0,0.8-0.3,1.1-0.8c0.1-0.3,1.5-3.7,2-5.2c0.1-0.4,1.6-4.3,1.8-4.8c0.1-0.2,0.1-0.4,0-0.6
			c-0.1-0.1-0.1-0.2-0.1-0.2c0-0.1,0-0.1,0.2-0.2c0.5-0.1,1.3-0.7,1.5-0.9c0.1-0.1,0.1-0.2,0.2-0.2c0.1,0,0.1,0.1,0.2,0.3
			c0.3,1.2,1.8,5.2,2.1,6.4c0.4,1.4,1.6,4.8,1.9,5.3c0.3,0.6,0.8,0.8,1.2,0.8h0.6c0.1,0,0.1,0.1,0.1,0.1v0.5c0,0.1-0.1,0.1-0.2,0.1
			c-0.3,0-0.7-0.1-2.2-0.1c-1.5,0-2.2,0.1-2.6,0.1c-0.1,0-0.1-0.1-0.1-0.2v-0.4c0-0.1,0.1-0.1,0.2-0.1h0.5c0.5,0,0.7-0.2,0.5-0.7
			c-0.1-0.7-0.9-3-1.1-3.7H206.2z M210.4,186.9c-0.2-0.5-1.6-5.1-1.7-5.4c-0.1-0.1-0.1-0.3-0.1-0.3c-0.1,0-0.1,0.1-0.2,0.3
			c-0.1,0.2-1.8,4.9-2,5.4H210.4z"/>
		<path fill="#C4AF6C" d="M231.6,188.6c0-0.7-0.2-0.8-0.7-0.8h-0.8c-0.1,0-0.1,0-0.1-0.1v-0.5c0-0.1,0-0.1,0.1-0.1
			c0.3,0,1.1,0.1,2.3,0.1c1.3,0,1.9-0.1,2.2-0.1c0.1,0,0.1,0.1,0.1,0.1v0.4c0,0.1,0,0.1-0.1,0.1h-0.7c-0.3,0-0.6,0.1-0.6,0.7v2.4
			c0,0.3,0.1,0.4,0.1,0.6c0,0.1-0.1,0.2-0.3,0.3c-1.5,0.7-2.9,1.2-5,1.2c-1.6,0-3.9-0.6-5.1-2.1c-1.1-1.3-1.7-2.8-1.7-5
			c0-1.7,0.7-3.4,2.1-4.6c1.3-1.1,2.9-1.7,5.1-1.7c1.6,0,3,0.6,3.6,1.1c0.2,0.2,0.3,0.1,0.4,0l0.3-0.3c0.1-0.1,0.1-0.2,0.3-0.2
			c0.1,0,0.2,0.1,0.2,0.2l0.1,3.5c0,0.1,0,0.2-0.1,0.2l-0.3,0c-0.1,0-0.1-0.1-0.1-0.1c-0.1-0.5-0.5-1.4-1.1-2.2
			c-0.5-0.7-1.7-1.5-3.3-1.5c-1.3,0-2.4,0.3-3.5,1.5c-1,1-1.6,2.6-1.6,4.2c0,2.2,0.6,4,1.7,5.1c0.9,0.9,2,1.3,3.2,1.3
			c1.5,0,2.4-0.3,3-0.6c0.4-0.3,0.5-0.7,0.5-1.6V188.6z"/>
		<path fill="#C4AF6C" d="M245.1,185.7c0.1,0,2.1-0.1,2.3-0.1c0.5-0.1,0.7-0.2,0.8-0.8c0.1-0.2,0.1-0.5,0.1-0.9
			c0-0.1,0.1-0.1,0.1-0.1l0.5,0c0.1,0,0.1,0.1,0.1,0.1c-0.1,0.3-0.1,1.8-0.1,2.1c0,0.6,0.1,1.5,0.1,1.9c0,0.1,0,0.1-0.1,0.1
			l-0.4,0.1c-0.1,0-0.1,0-0.1-0.2c0-0.2-0.1-0.7-0.2-0.9c-0.1-0.4-0.3-0.7-0.8-0.7c-0.9-0.1-2.1-0.1-2.4-0.1v1.1c0,1,0,2.8,0,3.1
			c0,0.9,0.5,1.3,1,1.4c0.4,0.1,0.9,0.1,1.4,0.1c0.3,0,1.2,0,1.6-0.1c0.3,0,1.1-0.2,1.6-0.6c0.2-0.2,1.2-1.5,1.5-1.9
			c0.1-0.1,0.1-0.2,0.2-0.1l0.3,0.2c0.1,0.1,0.1,0.1,0,0.3l-1,2.7c-0.1,0.2-0.2,0.3-0.4,0.3c-0.1,0-0.5,0-1.6,0c-1.1,0-2.9,0-5.7,0
			c-0.7,0-1.2,0-1.6,0c-0.4,0-0.6,0-0.8,0c-0.1,0-0.2,0-0.2-0.1v-0.5c0-0.1,0.1-0.1,0.2-0.1h0.7c0.8,0,0.9-0.1,0.9-0.8v-4.3v-1.8
			c0-1.5,0-3.8-0.1-4c-0.1-0.6-0.3-0.7-0.9-0.7h-0.7c-0.1,0-0.1,0-0.1-0.1v-0.5c0-0.1,0-0.1,0.1-0.1c0.4,0,1,0.1,2.2,0.1h0.8
			c1.8,0,3.6,0,5.4,0c0.3,0,0.6,0,0.7,0c0.1,0,0.1,0,0.1,0.1c0.1,0.3,0.9,2.8,0.9,2.9c0,0.1,0,0.1-0.1,0.2l-0.3,0.1
			c-0.1,0-0.1,0-0.1-0.1c0-0.1-1.4-1.8-1.8-2.1c-0.4-0.3-0.9-0.5-1.4-0.5l-3.2-0.1V185.7z"/>
		<path fill="#C4AF6C" d="M267.3,189.8c0.3-0.3,2.1-4.6,2.2-4.9c0.1-0.3,2.1-4.5,2.2-4.9c0-0.2,0.2-0.2,0.4-0.2c2.4,0,3-0.1,3.2-0.1
			c0.1,0,0.1,0.1,0.1,0.1v0.4c0,0.1,0,0.2-0.1,0.2h-0.8c-0.5,0-0.6,0.3-0.6,0.7c0,0.5-0.1,3.1-0.1,4.4v1.3c0,0.9,0.1,3.9,0.1,4.2
			c0,0.7,0.2,1,0.6,1h1.1c0.1,0,0.1,0.1,0.1,0.1v0.4c0,0.1,0,0.2-0.2,0.2c-0.2,0-0.5-0.1-2.6-0.1c-1.7,0-2.4,0.1-2.6,0.1
			c-0.1,0-0.1-0.1-0.1-0.2v-0.4c0-0.1,0-0.1,0.1-0.1h1.2c0.3,0,0.5-0.1,0.5-0.7c0-0.2,0-3.4,0-4.7v-1.2c0-1.2,0-4.5-0.1-4.6h0
			c-0.2,0.2-2.8,6-2.9,6.2c-0.1,0.2-2.1,4.9-2.2,5c-0.1,0.2-0.2,0.4-0.4,0.4c-0.1,0-0.2-0.1-0.3-0.3c-0.1-0.1-2.4-5.9-2.5-6.1
			c-0.3-0.8-2-4.9-2.3-5.1c-0.1,0.3-0.1,4.9-0.1,5.1c0,0.2,0,4.1,0,4.7c0.1,1,0.3,1.3,0.8,1.3h0.9c0.1,0,0.1,0.1,0.1,0.1v0.5
			c0,0.1,0,0.1-0.2,0.1c-0.2,0-0.7-0.1-2.2-0.1c-1.6,0-2.2,0.1-2.4,0.1c-0.1,0-0.2,0-0.2-0.2v-0.4c0-0.1,0-0.1,0.1-0.1h1
			c0.7,0,0.9-0.5,1-1.1c0.2-1.3,0.3-6,0.3-6.3c0-0.3,0-3,0-3.5c0-0.4,0-0.7-0.7-0.7H259c-0.1,0-0.1-0.1-0.1-0.1v-0.5
			c0-0.1,0-0.1,0.1-0.1c0.2,0,0.7,0.1,2.2,0.1c0.9,0,1.3-0.1,1.6-0.1c0.3,0,0.4,0.1,0.5,0.3L267.3,189.8z"/>
		<path fill="#C4AF6C" d="M286.1,185.7c0.1,0,2.1-0.1,2.3-0.1c0.5-0.1,0.7-0.2,0.8-0.8c0.1-0.2,0.1-0.5,0.1-0.9
			c0-0.1,0.1-0.1,0.1-0.1l0.5,0c0.1,0,0.1,0.1,0.1,0.1c-0.1,0.3-0.1,1.8-0.1,2.1c0,0.6,0.1,1.5,0.1,1.9c0,0.1,0,0.1-0.1,0.1
			l-0.4,0.1c-0.1,0-0.1,0-0.1-0.2c0-0.2-0.1-0.7-0.2-0.9c-0.1-0.4-0.3-0.7-0.8-0.7c-0.9-0.1-2.1-0.1-2.4-0.1v1.1c0,1,0,2.8,0,3.1
			c0,0.9,0.5,1.3,1,1.4c0.4,0.1,0.9,0.1,1.4,0.1c0.3,0,1.2,0,1.6-0.1c0.3,0,1.1-0.2,1.6-0.6c0.2-0.2,1.2-1.5,1.5-1.9
			c0.1-0.1,0.1-0.2,0.2-0.1l0.3,0.2c0.1,0.1,0.1,0.1,0,0.3l-1,2.7c-0.1,0.2-0.2,0.3-0.4,0.3c-0.1,0-0.5,0-1.6,0c-1.1,0-2.9,0-5.7,0
			c-0.7,0-1.2,0-1.6,0c-0.4,0-0.6,0-0.8,0c-0.1,0-0.2,0-0.2-0.1v-0.5c0-0.1,0.1-0.1,0.2-0.1h0.7c0.8,0,0.9-0.1,0.9-0.8v-4.3v-1.8
			c0-1.5,0-3.8-0.1-4c-0.1-0.6-0.3-0.7-0.9-0.7h-0.7c-0.1,0-0.1,0-0.1-0.1v-0.5c0-0.1,0-0.1,0.1-0.1c0.4,0,1,0.1,2.2,0.1h0.8
			c1.8,0,3.6,0,5.4,0c0.3,0,0.6,0,0.7,0c0.1,0,0.1,0,0.1,0.1c0.1,0.3,0.9,2.8,0.9,2.9c0,0.1,0,0.1-0.1,0.2l-0.3,0.1
			c-0.1,0-0.1,0-0.1-0.1c0-0.1-1.4-1.8-1.8-2.1c-0.4-0.3-0.9-0.5-1.4-0.5l-3.2-0.1V185.7z"/>
		<path fill="#C4AF6C" d="M301.8,182.1c0-1.1-0.5-1.7-1.2-1.7l-0.7,0c-0.1,0-0.1-0.1-0.1-0.1v-0.5c0-0.1,0-0.1,0.1-0.1
			c0.1,0,0.2,0,0.5,0c0.3,0,0.7,0,1.3,0c0.6,0,1,0,1.2,0c0.2,0,0.4,0.1,0.5,0.2c0.1,0.1,3.6,4.7,3.8,5c0.2,0.3,3.3,4,3.7,4.6h0.1
			v-2.2c0-1.6,0-2.5-0.1-3.4c0-0.7-0.1-2.5-0.2-2.8c-0.1-0.5-0.5-0.7-1-0.7h-0.6c-0.1,0-0.1,0-0.1-0.1v-0.5c0-0.1,0-0.1,0.1-0.1
			c0.3,0,0.8,0.1,2,0.1c1.1,0,1.5-0.1,1.8-0.1c0.1,0,0.1,0.1,0.1,0.1v0.5c0,0.1,0,0.1-0.1,0.1h-0.5c-0.5,0-0.7,0.3-0.7,1
			c-0.1,1.2-0.1,3-0.1,4.2v6.8c0,0.3,0,0.4-0.1,0.4c-0.2,0-0.4-0.2-0.4-0.3c0,0-1.1-1.4-2.2-2.8c-1.3-1.6-2.6-3.3-2.7-3.4
			c-0.2-0.2-3.6-4.4-3.7-4.5h-0.1v4.1c0,1.7,0.1,4.7,0.2,5c0.1,0.7,0.2,1.1,0.7,1.1h0.5c0.1,0,0.1,0.1,0.1,0.2v0.4
			c0,0.1,0,0.1-0.1,0.1c-0.2,0-1.3-0.1-1.8-0.1c-0.4,0-1.6,0.1-1.8,0.1c-0.1,0-0.1,0-0.1-0.1v-0.5c0-0.1,0-0.1,0.1-0.1h0.6
			c0.5,0,0.7-0.2,0.8-1.1c0-0.3,0.1-2.4,0.1-5.7V182.1z"/>
		<path fill="#C4AF6C" d="M324.8,180.4h-0.5c-0.6,0-2.2,0-2.9,0.2c-0.8,0.3-1.4,1.5-1.6,2.1c0,0.1-0.1,0.1-0.2,0.1l-0.3-0.1
			c-0.1,0-0.1,0-0.1-0.1c0.2-0.7,0.8-3,0.9-3.2c0-0.2,0.1-0.3,0.2-0.3c0.1,0,0.1,0,0.2,0.1l0.2,0.2c0.3,0.2,0.5,0.3,1,0.3
			c1,0,1.7,0.1,3.4,0.1h0.9c2,0,2.8-0.1,3.7-0.1c0.4,0,0.6-0.1,0.9-0.3l0.3-0.2c0.1-0.1,0.1-0.1,0.2-0.1c0.1,0,0.1,0.1,0.2,0.3
			c0,0.2,0.4,2.5,0.5,3.3c0,0.1,0,0.1-0.1,0.1l-0.3,0.1c-0.1,0-0.1,0-0.1-0.1c-0.1-0.3-0.7-1.8-1.3-2c-0.5-0.3-2.3-0.3-3.2-0.3h-0.5
			v5.2c0,0.3,0,5.4,0,5.7c0,0.5,0.2,0.7,0.6,0.7h1.2c0.2,0,0.2,0.1,0.2,0.2v0.4c0,0.1,0,0.1-0.2,0.1c-0.2,0-0.8-0.1-2.6-0.1
			c-1.8,0-2.5,0.1-2.8,0.1c-0.1,0-0.2-0.1-0.2-0.2v-0.3c0-0.1,0-0.2,0.1-0.2h1.2c0.4,0,0.6-0.2,0.6-0.4c0.1-0.5,0.1-6.1,0.1-6.5
			V180.4z"/>
	</g>
	<rect x="145.2" fill="#C4AF6C" width="97.4" height="10.4"/>
	<rect x="145.2" y="87" fill="#C4AF6C" width="97.4" height="10.4"/>
	<rect x="232.2" fill="#C4AF6C" width="10.4" height="97.4"/>
	<rect x="145.2" fill="#C4AF6C" width="10.4" height="97.4"/>
</g>
</svg>
