<?xml version="1.0" encoding="utf-8"?>
<!-- Generator: Adobe Illustrator 18.1.1, SVG Export Plug-In . SVG Version: 6.00 Build 0)  -->
<svg version="1.1" id="Layer_1" xmlns="http://www.w3.org/2000/svg" xmlns:xlink="http://www.w3.org/1999/xlink" x="0px" y="0px"
	 width="27.5px" height="47px" viewBox="-283 397.9 27.5 47" enable-background="new -283 397.9 27.5 47" xml:space="preserve">
<path fill="#FFFFFF" d="M-263.4,399.2c-1.7,1.7-18.2,19-18.2,19c-0.9,0.9-1.4,2-1.4,3.2c0,1.2,0.4,2.3,1.4,3.2
	c0,0,16.5,17.4,18.2,19c1.7,1.7,4.7,1.8,6.5,0c1.8-1.8,1.9-4.2,0-6.4l-15.2-15.8l15.3-15.8c1.9-2.2,1.8-4.6,0-6.4
	C-258.6,397.4-261.7,397.5-263.4,399.2L-263.4,399.2z"/>
</svg>
